<?xml version="1.0" encoding="utf-8"?>
<!-- Generator: Adobe Illustrator 16.0.0, SVG Export Plug-In . SVG Version: 6.00 Build 0)  -->
<!DOCTYPE svg PUBLIC "-//W3C//DTD SVG 1.1//EN" "http://www.w3.org/Graphics/SVG/1.1/DTD/svg11.dtd">
<svg version="1.1" id="Слой_1" xmlns="http://www.w3.org/2000/svg" xmlns:xlink="http://www.w3.org/1999/xlink" x="0px" y="0px"
	 width="154px" height="154px" viewBox="0 0 154 154" enable-background="new 0 0 154 154" xml:space="preserve">
<g>
	<circle fill="#9A70DB" cx="77" cy="77" r="77"/>
	<g>
		<path fill="#FFFFFF" d="M47.662,37.204c-0.935,0.791-1.869,1.582-2.803,2.373l-6.936-8.194l-3.309,2.8l6.936,8.194
			c-0.934,0.791-1.884,1.595-2.803,2.373l-9.075-10.722c0.92-0.778,1.869-1.582,8.914-7.545L47.662,37.204z"/>
		<path fill="#FFFFFF" d="M53.622,22.067c-1.879,0.908-2.817,1.362-4.679,2.261l0.865,1.789l4.299-2.078
			c0.463,0.957,0.925,1.915,1.388,2.873l-4.299,2.078c0.357,0.741,0.707,1.463,1.074,2.222c1.86-0.899,2.944-1.423,4.841-2.34
			c0.454,0.939,0.926,1.915,1.389,2.873c-2.963,1.431-5.131,2.479-8.058,3.894c-2.042-4.227-4.086-8.454-6.11-12.645
			c2.926-1.414,4.931-2.383,7.894-3.815C52.68,20.116,53.15,21.092,53.622,22.067z"/>
		<path fill="#FFFFFF" d="M61.058,30.804c-0.974-4.573-1.945-9.146-2.923-13.738c1.982-0.422,4.023-0.856,6.045-1.286
			c6.579-1.379,8.75,8.826,2.175,10.225l-2.531,0.539l0.747,3.513C63.394,30.307,62.215,30.558,61.058,30.804z M64.828,18.924
			C64,19.08,63.12,19.287,62.316,19.458c0.237,1.118,0.597,2.806,0.834,3.925l2.513-0.535C67.586,22.44,66.873,18.509,64.828,18.924
			z"/>
		<path fill="#FFFFFF" d="M83.909,21.513c1.117,0.631,1.613,1.697,1.56,2.94c-0.126,2.446-1.696,4.366-4.563,4.241l-6.576-0.285
			l0.609-14.034l5.995,0.26c2.425,0.105,4.288,2.074,4.184,4.5C85.08,19.977,84.614,20.981,83.909,21.513z M78.04,22.986
			l-0.104,2.386l2.867,0.125c1.443,0.063,1.526-2.324,0.083-2.387L78.04,22.986z M78.268,17.733l-0.098,2.266l2.266,0.098
			c1.423,0.062,1.521-2.204,0.077-2.267L78.268,17.733z"/>
		<path fill="#FFFFFF" d="M95.917,17.04l-1.491,3.919l2.419,0.919c6.282,2.388,2.788,11.577-3.501,9.207l-5.774-2.196l4.99-13.125
			L95.917,17.04z M93.278,23.977l-1.212,3.188c0.769,0.292,1.604,0.632,2.399,0.913c1.958,0.723,3.05-2.489,1.213-3.188
			L93.278,23.977z M105.518,20.69l3.355,1.276l-4.99,13.126l-3.357-1.277L105.518,20.69z"/>
		<path fill="#FFFFFF" d="M107.255,37.896l-0.983-0.826l9.044-10.775c0.938,0.787,1.875,1.574,2.813,2.361l-4.426,5.272l9.905-0.751
			l1,0.839l-9.07,10.806c-0.938-0.787-1.891-1.587-2.844-2.387l4.438-5.288L107.255,37.896z M122.075,26.232
			c-0.563-0.42-1.138-0.798-1.712-1.175c-1.398,1.76-1.191,3.48,0.468,4.874c1.707,1.432,3.391,1.299,4.896-0.371
			c-0.471-0.5-0.941-1-1.454-1.482c-0.634,0.568-1.217,0.419-1.847-0.109C121.78,27.425,121.645,26.839,122.075,26.232z"/>
	</g>
	<g>
		<g>
			<path fill="#FFFFFF" d="M28.311,116.456l12.145-11.055c0.947,1.041,1.896,2.082,2.874,3.158l-4.598,4.185l0.206,0.226
				c2.826,3.105,5.009,0.833,7.282-1.236c0.963,1.059,1.927,2.117,2.905,3.193c-2.48,2.258-4.708,4.412-8.447,3.406l-2.343,8.16
				l-0.485,0.442l-3.144-3.452l2.27-6.952c-0.447-0.353-0.795-0.735-1.158-1.134l-4.633,4.217
				C30.206,118.538,29.259,117.497,28.311,116.456z"/>
			<path fill="#FFFFFF" d="M43.839,131.145c2.538-4.843,5.077-9.685,7.626-14.548c2.1,1.101,4.261,2.233,6.401,3.355
				c6.951,3.671,1.286,14.478-5.676,10.828l-2.682-1.406l-1.95,3.721C46.312,132.44,45.065,131.787,43.839,131.145z M56.103,123.267
				c-0.862-0.479-1.809-0.947-2.66-1.395c-0.621,1.185-1.559,2.972-2.18,4.156l2.66,1.395
				C55.96,128.491,58.253,124.421,56.103,123.267z"/>
			<path fill="#FFFFFF" d="M75.041,128.39c-2.412-0.375-3.618-0.563-6.007-0.934l-0.357,2.297l5.521,0.857
				c-0.19,1.229-0.382,2.458-0.572,3.688l-5.521-0.857c-0.147,0.951-0.292,1.879-0.442,2.854c2.389,0.37,3.78,0.586,6.216,0.965
				c-0.188,1.205-0.382,2.458-0.573,3.688c-3.804-0.591-6.587-1.023-10.344-1.606c0.843-5.427,1.685-10.854,2.521-16.235
				c3.758,0.584,6.332,0.983,10.136,1.574C75.43,125.884,75.235,127.137,75.041,128.39z"/>
			<path fill="#FFFFFF" d="M83.262,142.577l-3.422,0.598l-0.945-5.409l1.641-0.287l3.309-13.777l1.779-0.312l7.974,11.805
				l1.688-0.295l0.946,5.408l-3.398,0.596l-0.312-1.781l-9.57,1.674L83.262,142.577z M84.712,136.7l4.577-0.801l-3.358-5.439
				L84.712,136.7z"/>
			<path fill="#FFFFFF" d="M103.938,134.933l-1.282,0.783l-8.568-14.045c1.223-0.746,2.444-1.49,3.667-2.236l4.192,6.871
				l2.863-11.258l1.302-0.795l8.593,14.084c-1.223,0.746-2.465,1.504-3.707,2.262l-4.204-6.893L103.938,134.933z"/>
			<path fill="#FFFFFF" d="M110.319,115.396c-0.979-0.805-1.939-1.594-2.9-2.383l7.744-9.426c0.961,0.789,1.922,1.578,2.9,2.383
				l-2.547,3.1l9.789,8.042c-0.879,1.069-1.757,2.14-2.636,3.208l-9.789-8.041L110.319,115.396z"/>
		</g>
	</g>
	<path fill="#FFFFFF" d="M125.146,44.8l2.751,2.281l-0.189-3.568l2.035,0.14l-0.582,3.502l2.961-1.93l0.903,1.796l-3.322,1.213
		l3.165,1.633l-1.103,1.717l-2.757-2.292l0.196,3.581l-2.036-0.14l0.576-3.515l-2.955,1.943l-0.903-1.795l3.315-1.226l-3.158-1.622
		L125.146,44.8z"/>
	<path fill="#FFFFFF" d="M129.082,95.429l-0.211,3.567l2.766-2.265l1.091,1.725l-3.168,1.602l3.309,1.246l-0.914,1.79l-2.943-1.96
		l0.556,3.518l-2.037,0.127l0.218-3.58l-2.771,2.278l-1.091-1.725l3.173-1.614l-3.314-1.233l0.913-1.79l2.951,1.947l-0.563-3.506
		L129.082,95.429z"/>
	<path fill="#FFFFFF" d="M29.624,104.226l-2.799-2.224l0.267,3.564l-2.038-0.097l0.506-3.513l-2.918,1.993l-0.94-1.777l3.294-1.283
		l-3.199-1.565l1.065-1.741l2.806,2.235l-0.273-3.577l2.039,0.097l-0.5,3.526l2.913-2.006l0.94,1.775l-3.289,1.297l3.192,1.553
		L29.624,104.226z"/>
	<path fill="#FFFFFF" d="M22.64,88.199l-1.979-2.974l-0.845,3.471l-1.909-0.717l1.564-3.187l-3.393,0.996l-0.348-1.978l3.53-0.209
		l-2.563-2.475l1.551-1.328l1.98,2.989l0.841-3.485l1.911,0.717l-1.563,3.201l3.389-1.012l0.35,1.979l-3.528,0.222l2.56,2.459
		L22.64,88.199z"/>
	<path fill="#FFFFFF" d="M20.909,70.82l-0.975-3.438l-1.866,3.047l-1.598-1.27l2.465-2.554l-3.534-0.089l0.274-1.991l3.423,0.884
		L17.42,62.27l1.881-0.792l0.972,3.454l1.869-3.063l1.598,1.272l-2.467,2.567l3.535,0.074l-0.275,1.991l-3.425-0.868l1.683,3.125
		L20.909,70.82z"/>
	<path fill="#FFFFFF" d="M24.599,53.708l0.134-3.571l-2.716,2.325l-1.129-1.701l3.132-1.67l-3.333-1.174l0.873-1.809l2.986,1.895
		l-0.633-3.504l2.034-0.172l-0.139,3.584l2.721-2.337l1.128,1.7l-3.138,1.684l3.34,1.161l-0.874,1.81l-2.99-1.883l0.637,3.492
		L24.599,53.708z"/>
	<path fill="#FFFFFF" d="M101.422,68.937c0.059,1.146,0.091,2.416,0.091,3.806c0,1.39,0,2.808,0,4.259c0,1.449,0,2.869,0,4.258
		c0,1.391-0.032,2.659-0.091,3.806c-0.182,3.505-0.711,6.752-1.586,9.742c-0.877,2.991-2.267,5.589-4.17,7.792
		c-1.901,2.207-4.38,3.929-7.429,5.166c-3.053,1.238-6.783,1.857-11.192,1.857c-4.471,0-8.216-0.619-11.235-1.857
		c-3.021-1.237-5.482-2.959-7.387-5.166c-1.901-2.203-3.294-4.801-4.167-7.792c-0.877-2.99-1.403-6.237-1.588-9.742
		c-0.12-2.295-0.181-4.907-0.181-7.838c0-2.93,0.061-5.542,0.181-7.84c0.185-3.5,0.711-6.779,1.588-9.831
		c0.873-3.05,2.266-5.69,4.167-7.928c1.904-2.234,4.365-4.001,7.387-5.302c3.02-1.297,6.765-1.947,11.235-1.947
		c4.409,0,8.14,0.622,11.192,1.856c3.049,1.241,5.527,2.961,7.429,5.167c1.903,2.206,3.293,4.801,4.17,7.793
		C100.711,62.186,101.24,65.433,101.422,68.937z M64.903,84.614c0.302,4.348,1.342,7.714,3.125,10.104
		c1.783,2.385,4.787,3.578,9.017,3.578s7.233-1.193,9.017-3.578c1.782-2.39,2.822-5.756,3.127-10.104
		c0.119-2.297,0.181-4.833,0.181-7.613c0-2.778-0.062-5.316-0.181-7.615c-0.305-4.346-1.345-7.714-3.127-10.101
		c-1.783-2.388-4.787-3.578-9.017-3.578s-7.233,1.19-9.017,3.578c-1.783,2.387-2.823,5.755-3.125,10.101
		c-0.123,2.299-0.182,4.836-0.182,7.615C64.722,79.781,64.78,82.317,64.903,84.614z"/>
	<path fill="#FFFFFF" d="M121.146,67.186v3.194c0,1.536-0.568,2.706-1.708,3.496c-1.14,0.793-2.659,1.189-4.558,1.189
		c-1.897,0-3.422-0.396-4.572-1.189c-1.153-0.79-1.729-1.969-1.729-3.529v-3.125c0-1.564,0.588-2.741,1.763-3.535
		c1.175-0.792,2.682-1.188,4.522-1.188c1.838,0,3.346,0.403,4.52,1.205C120.56,64.509,121.146,65.669,121.146,67.186z
		 M130.472,62.534h2.991c0.57,0,0.854,0.263,0.854,0.786c0,0.145-0.047,0.272-0.141,0.39l-17.231,23.068
		c-0.332,0.451-0.76,0.675-1.281,0.675h-2.991c-0.567,0-0.853-0.253-0.853-0.769c0-0.139,0.046-0.27,0.141-0.39L129.19,63.21
		C129.522,62.759,129.95,62.534,130.472,62.534z M113.707,67.252v2.992c0,0.298,0.111,0.551,0.336,0.764
		c0.226,0.214,0.505,0.317,0.837,0.317c0.333,0,0.612-0.104,0.839-0.317c0.225-0.213,0.338-0.466,0.338-0.764v-2.992
		c0-0.298-0.113-0.548-0.338-0.75c-0.227-0.2-0.506-0.302-0.839-0.302c-0.332,0-0.611,0.108-0.837,0.319
		C113.818,66.733,113.707,66.976,113.707,67.252z M137.52,79.231v3.346c0,1.613-0.567,2.838-1.708,3.666
		c-1.14,0.832-2.658,1.245-4.557,1.245s-3.423-0.413-4.573-1.245c-1.152-0.828-1.726-2.066-1.726-3.705v-3.273
		c0-1.637,0.586-2.869,1.761-3.702c1.176-0.829,2.682-1.246,4.521-1.246c1.84,0,3.346,0.423,4.521,1.264
		C136.933,76.425,137.52,77.64,137.52,79.231z M130.083,79.193v3.345c0,0.338,0.111,0.619,0.337,0.858
		c0.226,0.235,0.504,0.354,0.835,0.354c0.334,0,0.612-0.119,0.838-0.354c0.225-0.239,0.337-0.521,0.337-0.858v-3.345
		c0-0.331-0.112-0.609-0.337-0.835c-0.226-0.225-0.504-0.338-0.838-0.338c-0.331,0-0.609,0.119-0.835,0.355
		C130.194,78.614,130.083,78.888,130.083,79.193z"/>
</g>
</svg>
