<?xml version="1.0" encoding="utf-8"?>
<!-- Generator: Adobe Illustrator 16.0.0, SVG Export Plug-In . SVG Version: 6.00 Build 0)  -->
<!DOCTYPE svg PUBLIC "-//W3C//DTD SVG 1.1//EN" "http://www.w3.org/Graphics/SVG/1.1/DTD/svg11.dtd">
<svg version="1.1" id="Шар_1" xmlns="http://www.w3.org/2000/svg" xmlns:xlink="http://www.w3.org/1999/xlink" x="0px" y="0px"
	 width="233px" height="44.59px" viewBox="0 0 233 44.59" enable-background="new 0 0 233 44.59" xml:space="preserve">
<g>
	<g>
		<g>
			<path fill="#FFFFFF" d="M70.922,39.035c0,0.941-0.23,1.691-0.688,2.215c-0.459,0.523-1.086,0.793-1.901,0.793
				c-0.501,0-0.96-0.125-1.335-0.375c-0.397-0.252-0.69-0.605-0.898-1.064s-0.312-0.98-0.312-1.588c0-0.939,0.23-1.691,0.689-2.213
				c0.459-0.523,1.085-0.795,1.9-0.795c0.793,0,1.42,0.271,1.878,0.795C70.691,37.367,70.922,38.098,70.922,39.035z M66.328,39.035
				c0,0.795,0.167,1.42,0.522,1.859c0.355,0.438,0.855,0.668,1.482,0.668c0.648,0,1.128-0.23,1.482-0.668
				c0.355-0.439,0.522-1.064,0.522-1.859c0-0.793-0.166-1.418-0.522-1.857c-0.354-0.439-0.856-0.666-1.482-0.666
				c-0.647,0-1.127,0.227-1.482,0.666C66.517,37.596,66.328,38.223,66.328,39.035z"/>
			<path fill="#FFFFFF" d="M74.7,36.133v2.547h3.676v-2.547h0.521v5.807h-0.521v-2.799H74.7v2.799h-0.522v-5.807H74.7z"/>
			<path fill="#FFFFFF" d="M86.498,41.939h-0.521v-5.303h-2.047c-0.103,1.396-0.229,2.482-0.396,3.215
				c-0.146,0.73-0.355,1.273-0.605,1.627c-0.25,0.355-0.563,0.523-0.94,0.523c-0.146,0-0.251-0.021-0.355-0.043v-0.48
				c0.063,0.021,0.167,0.043,0.292,0.043c0.397,0,0.731-0.418,0.982-1.275c0.251-0.855,0.438-2.213,0.563-4.092h3.049v5.785H86.498z
				"/>
			<path fill="#FFFFFF" d="M93.598,41.939l-0.125-0.92H93.43c-0.292,0.375-0.584,0.648-0.898,0.795
				c-0.313,0.145-0.668,0.229-1.086,0.229c-0.563,0-1.001-0.145-1.336-0.438c-0.312-0.293-0.48-0.689-0.48-1.211
				c0-0.564,0.23-1.002,0.71-1.314c0.481-0.314,1.149-0.48,2.047-0.502l1.106-0.041V38.16c0-0.543-0.104-0.961-0.333-1.254
				c-0.23-0.27-0.585-0.416-1.085-0.416c-0.543,0-1.085,0.146-1.671,0.438l-0.188-0.459c0.647-0.293,1.274-0.438,1.899-0.438
				c0.647,0,1.107,0.166,1.421,0.5c0.312,0.334,0.479,0.857,0.479,1.545v3.863H93.598L93.598,41.939z M91.468,41.562
				c0.626,0,1.106-0.168,1.461-0.521c0.355-0.355,0.543-0.857,0.543-1.482v-0.564l-1.023,0.041
				c-0.814,0.043-1.399,0.168-1.733,0.377c-0.355,0.209-0.522,0.543-0.522,1.002c0,0.355,0.104,0.648,0.334,0.855
				C90.758,41.459,91.07,41.562,91.468,41.562z"/>
			<path fill="#FFFFFF" d="M98.023,36.133v4.197l-0.042,1.086l3.446-5.283h0.709v5.807h-0.501v-4.178l0.021-1.125l-3.446,5.281
				h-0.689v-5.805h0.501V36.133L98.023,36.133z M99.82,35.32c-0.522,0-0.94-0.125-1.211-0.355c-0.272-0.23-0.438-0.625-0.481-1.148
				h0.461c0.061,0.398,0.166,0.668,0.354,0.836c0.187,0.166,0.479,0.25,0.876,0.25s0.688-0.084,0.876-0.25
				c0.189-0.168,0.314-0.438,0.355-0.814h0.479C101.448,34.818,100.885,35.32,99.82,35.32z"/>
			<path fill="#FFFFFF" d="M106.251,36.133v2.547h3.674v-2.547h0.522v5.807h-0.522v-2.799h-3.674v2.799h-0.522v-5.807H106.251z"/>
			<path fill="#FFFFFF" d="M121.66,36.133h0.648l-2.61,2.82l2.776,2.986h-0.709l-2.736-2.945v2.945h-0.522v-5.807h0.544v2.82
				L121.66,36.133z"/>
			<path fill="#FFFFFF" d="M127.652,42.043c-0.898,0-1.546-0.334-1.962-1.002h-0.043l0.021,0.438
				c0.022,0.271,0.022,0.543,0.022,0.857v2.234h-0.523v-8.438h0.438l0.104,0.836h0.042c0.396-0.625,1.044-0.939,1.922-0.939
				c0.771,0,1.376,0.25,1.794,0.771c0.418,0.523,0.628,1.254,0.628,2.256c0,0.961-0.21,1.691-0.648,2.213
				C128.988,41.793,128.405,42.043,127.652,42.043z M127.652,41.584c0.585,0,1.045-0.23,1.378-0.668
				c0.335-0.439,0.48-1.064,0.48-1.859c0-1.713-0.605-2.545-1.837-2.545c-0.668,0-1.17,0.186-1.482,0.562
				c-0.313,0.375-0.48,0.98-0.48,1.816v0.166c0,0.898,0.147,1.545,0.46,1.943C126.464,41.375,126.964,41.584,127.652,41.584z"/>
			<path fill="#FFFFFF" d="M135.671,42.043c-0.836,0-1.504-0.25-1.963-0.773c-0.479-0.52-0.71-1.252-0.71-2.191
				c0-0.918,0.23-1.672,0.688-2.234c0.46-0.564,1.064-0.836,1.837-0.836c0.689,0,1.233,0.232,1.608,0.711
				c0.397,0.48,0.585,1.127,0.585,1.941v0.418h-4.176c0,0.795,0.188,1.4,0.564,1.816c0.375,0.418,0.877,0.627,1.565,0.627
				c0.334,0,0.627-0.021,0.877-0.062s0.563-0.146,0.96-0.293v0.48c-0.334,0.146-0.626,0.23-0.897,0.293
				C136.317,42.021,136.005,42.043,135.671,42.043z M135.503,36.488c-0.562,0-1.002,0.189-1.336,0.543
				c-0.333,0.375-0.543,0.898-0.584,1.586h3.59c0-0.666-0.145-1.189-0.438-1.586C136.443,36.678,136.024,36.488,135.503,36.488z"/>
			<path fill="#FFFFFF" d="M145.692,43.902h-0.521v-1.963h-4.448v1.963h-0.5v-2.465h0.375c0.479-0.688,0.855-1.461,1.128-2.359
				c0.271-0.898,0.396-1.879,0.416-2.945h2.8v5.305h0.772v2.465H145.692L145.692,43.902z M144.398,41.438v-4.801h-1.796
				c-0.083,1.92-0.543,3.527-1.399,4.801H144.398z"/>
			<path fill="#FFFFFF" d="M149.075,36.133v4.197l-0.041,1.086l3.445-5.283h0.71v5.807h-0.502v-4.178l0.021-1.125l-3.445,5.281
				h-0.689v-5.805h0.501V36.133L149.075,36.133z"/>
			<path fill="#FFFFFF" d="M160.455,36.594h-1.941v5.346h-0.522v-5.346h-1.984v-0.461h4.428v0.461H160.455z"/>
			<path fill="#FFFFFF" d="M163.817,38.576h1.837c1.357,0,2.047,0.543,2.047,1.607c0,0.543-0.188,0.982-0.565,1.295
				c-0.377,0.314-0.919,0.459-1.65,0.459h-2.212v-5.805h0.521v2.443H163.817L163.817,38.576z M163.817,39.078v2.359h1.774
				c0.501,0,0.897-0.105,1.148-0.312c0.25-0.209,0.396-0.523,0.396-0.939c0-0.377-0.125-0.67-0.354-0.836
				c-0.23-0.168-0.648-0.252-1.233-0.252h-1.731V39.078z M169.246,41.939h-0.522v-5.807h0.522V41.939L169.246,41.939z"/>
			<path fill="#FFFFFF" d="M177.848,36.133v2.547h3.676v-2.547h0.522v5.807h-0.522v-2.799h-3.676v2.799h-0.521v-5.807H177.848z"/>
			<path fill="#FFFFFF" d="M189.165,41.939l-0.125-0.92h-0.042c-0.293,0.375-0.585,0.648-0.897,0.795
				c-0.313,0.145-0.669,0.229-1.086,0.229c-0.563,0-1.002-0.145-1.336-0.438c-0.313-0.293-0.48-0.689-0.48-1.211
				c0-0.564,0.23-1.002,0.71-1.314c0.48-0.314,1.148-0.48,2.047-0.502l1.105-0.041V38.16c0-0.543-0.104-0.961-0.333-1.254
				c-0.23-0.27-0.585-0.416-1.085-0.416c-0.544,0-1.087,0.146-1.672,0.438l-0.188-0.459c0.647-0.293,1.274-0.438,1.899-0.438
				c0.648,0,1.108,0.166,1.421,0.5c0.313,0.334,0.479,0.857,0.479,1.545v3.863H189.165L189.165,41.939z M187.035,41.562
				c0.626,0,1.107-0.168,1.462-0.521c0.354-0.355,0.543-0.857,0.543-1.482v-0.564l-1.023,0.041
				c-0.814,0.043-1.398,0.168-1.733,0.377c-0.354,0.209-0.522,0.543-0.522,1.002c0,0.355,0.105,0.648,0.335,0.855
				C186.304,41.459,186.619,41.562,187.035,41.562z"/>
			<path fill="#FFFFFF" d="M200.712,36.133h0.648l-2.609,2.82l2.776,2.986h-0.711l-2.733-2.945v2.945h-0.543v-5.807h0.543v2.82
				L200.712,36.133z"/>
			<path fill="#FFFFFF" d="M207.728,41.939l-0.125-0.92h-0.042c-0.292,0.375-0.584,0.648-0.897,0.795
				c-0.312,0.145-0.669,0.229-1.086,0.229c-0.565,0-1.003-0.145-1.336-0.438c-0.314-0.293-0.479-0.689-0.479-1.211
				c0-0.564,0.229-1.002,0.709-1.314c0.479-0.314,1.15-0.48,2.046-0.502l1.106-0.041V38.16c0-0.543-0.104-0.961-0.333-1.254
				c-0.231-0.27-0.584-0.416-1.087-0.416c-0.543,0-1.086,0.146-1.669,0.438l-0.189-0.459c0.648-0.293,1.276-0.438,1.901-0.438
				c0.647,0,1.105,0.166,1.419,0.5s0.479,0.857,0.479,1.545v3.863H207.728L207.728,41.939z M205.598,41.562
				c0.627,0,1.108-0.168,1.461-0.521c0.355-0.355,0.544-0.857,0.544-1.482v-0.564l-1.023,0.041
				c-0.815,0.043-1.399,0.168-1.732,0.377c-0.355,0.209-0.522,0.543-0.522,1.002c0,0.355,0.105,0.648,0.335,0.855
				C204.887,41.459,205.201,41.562,205.598,41.562z"/>
			<path fill="#FFFFFF" d="M214.139,42.043c-0.898,0-1.547-0.334-1.965-1.002h-0.042l0.022,0.438c0.02,0.271,0.02,0.543,0.02,0.857
				v2.234h-0.521v-8.438h0.438l0.104,0.836h0.041c0.397-0.625,1.045-0.939,1.921-0.939c0.772,0,1.378,0.25,1.797,0.771
				c0.417,0.523,0.624,1.254,0.624,2.256c0,0.961-0.207,1.691-0.647,2.213C215.474,41.793,214.868,42.043,214.139,42.043z
				 M214.116,41.584c0.585,0,1.045-0.23,1.379-0.668c0.335-0.439,0.479-1.064,0.479-1.859c0-1.713-0.604-2.545-1.836-2.545
				c-0.668,0-1.171,0.186-1.484,0.562c-0.312,0.375-0.479,0.98-0.479,1.816v0.166c0,0.898,0.147,1.545,0.46,1.943
				C212.927,41.375,213.428,41.584,214.116,41.584z"/>
			<path fill="#FFFFFF" d="M223.471,36.594h-1.942v5.346h-0.5v-5.346h-1.984v-0.461h4.426L223.471,36.594L223.471,36.594z"/>
			<path fill="#FFFFFF" d="M225.33,36.133h0.542l1.232,3.258c0.377,1.002,0.606,1.672,0.71,2.025h0.042
				c0.147-0.459,0.397-1.148,0.729-2.045l1.234-3.217h0.543l-2.611,6.744c-0.208,0.543-0.375,0.918-0.521,1.105
				c-0.147,0.189-0.313,0.336-0.503,0.439c-0.187,0.105-0.418,0.146-0.688,0.146c-0.208,0-0.438-0.041-0.668-0.104v-0.459
				c0.208,0.061,0.438,0.082,0.668,0.082c0.188,0,0.335-0.041,0.48-0.125c0.146-0.082,0.271-0.209,0.376-0.396
				c0.104-0.189,0.25-0.459,0.397-0.855c0.145-0.398,0.25-0.648,0.292-0.752L225.33,36.133z"/>
		</g>
		<path fill="#FFFFFF" d="M65.396,26.939V3.758h4.625l6.704,9.688l6.705-9.688h4.624v23.181H83.87V9.811l-7.166,10.255L69.537,9.811
			v17.148h-4.141V26.939z"/>
		<path fill="#FFFFFF" d="M91.562,3.758h5.044l6.137,9.414l6.115-9.414h5.044l-9.058,13.238v9.943h-4.182v-9.943L91.562,3.758z"/>
		<path fill="#FFFFFF" d="M117.138,20.339c-0.441-1.429-0.651-3.108-0.651-5c0-1.893,0.209-3.573,0.651-5.001
			c0.441-1.43,1.01-2.584,1.703-3.449c0.693-0.862,1.534-1.555,2.521-2.08c0.987-0.547,1.956-0.903,2.879-1.071
			c0.945-0.189,1.954-0.274,3.047-0.274c2.375,0,4.709,0.462,7.02,1.366v3.91c-2.208-1.008-4.414-1.535-6.663-1.535
			c-1.05,0-1.934,0.084-2.669,0.273c-0.735,0.19-1.471,0.546-2.164,1.071c-0.715,0.527-1.239,1.368-1.62,2.501
			c-0.377,1.136-0.544,2.566-0.544,4.269c0,1.722,0.188,3.149,0.544,4.265c0.359,1.134,0.905,1.954,1.62,2.502
			c0.714,0.526,1.429,0.883,2.164,1.071c0.735,0.189,1.642,0.273,2.669,0.273c2.229,0,4.455-0.503,6.663-1.535v3.889
			c-2.312,0.924-4.665,1.387-7.02,1.387c-1.093,0-2.102-0.084-3.047-0.275c-0.945-0.188-1.892-0.545-2.879-1.07
			c-0.987-0.545-1.828-1.238-2.521-2.08C118.147,22.925,117.579,21.77,117.138,20.339z"/>
		<path fill="#FFFFFF" d="M139.203,26.939V3.758h8.912c2.712,0,4.834,0.651,6.326,1.932c1.514,1.282,2.27,3.133,2.27,5.528
			c0,3.532-1.702,5.821-5.085,6.853l6.094,8.869h-5.044l-5.527-8.176h-3.741v8.176H139.203z M143.388,14.938h4.623
			c1.407,0,2.521-0.25,3.319-0.756c0.799-0.501,1.199-1.45,1.199-2.856c0-1.43-0.4-2.397-1.199-2.88
			c-0.798-0.504-1.911-0.735-3.319-0.735h-4.623V14.938L143.388,14.938z"/>
		<path fill="#FFFFFF" d="M161.903,26.939V3.758h15.426v3.74h-11.243v5.862h9.75v3.931h-9.75v5.865h11.243v3.738h-15.426V26.939z"/>
		<path fill="#FFFFFF" d="M182.33,26.939V3.758h8.007c3.593,0,6.306,0.987,8.177,2.964c1.849,1.975,2.793,4.854,2.793,8.658
			c0,3.782-0.923,6.662-2.773,8.614c-1.849,1.977-4.581,2.965-8.176,2.965h-8.027V26.939L182.33,26.939z M186.492,23.199h3.824
			c2.417,0,4.14-0.612,5.191-1.829c1.05-1.22,1.597-3.216,1.597-5.989c0-2.793-0.525-4.813-1.597-6.033
			c-1.052-1.216-2.796-1.828-5.191-1.828h-3.824V23.199z"/>
		<path fill="#FFFFFF" d="M206.414,26.939V3.758h4.184v23.181H206.414z"/>
		<path fill="#FFFFFF" d="M214.001,7.939V3.758H233v4.181h-7.44v19h-4.183v-19H214.001z"/>
	</g>
	<g>
		<path fill="#FFFFFF" d="M39.1,1.986C38.307,0.893,36.553,0,35.203,0H2.455C1.104,0,0,1.104,0,2.455v3.89l42.267,0L39.1,1.986z"/>
		<path fill="#FFFFFF" d="M50.483,17.654l-5.167-7.111L0,10.543v26.281c0,1.352,1.104,2.455,2.455,2.455h32.749
			c1.35,0,3.104-0.895,3.897-1.986l11.384-15.668C51.276,20.533,51.276,18.746,50.483,17.654z M8.577,33.898H6.646
			c-1.069,0-1.932-0.869-1.932-1.934c0-1.066,0.863-1.934,1.932-1.934h1.931c1.069,0,1.932,0.867,1.932,1.934
			C10.509,33.029,9.646,33.898,8.577,33.898z M23.631,33.898h-8.194c-1.068,0-1.931-0.869-1.931-1.934
			c0-1.066,0.862-1.934,1.931-1.934h8.194c1.068,0,1.931,0.867,1.931,1.934C25.562,33.029,24.7,33.898,23.631,33.898z
			 M24.032,24.238H6.646c-1.069,0-1.932-0.867-1.932-1.933c0-1.066,0.863-1.934,1.932-1.934h17.386c1.069,0,1.932,0.868,1.932,1.934
			C25.963,23.371,25.101,24.238,24.032,24.238z"/>
	</g>
</g>
</svg>
