<?xml version="1.0" encoding="utf-8"?>
<!-- Generator: Adobe Illustrator 19.2.1, SVG Export Plug-In . SVG Version: 6.00 Build 0)  -->
<svg version="1.0" id="Layer_1" xmlns="http://www.w3.org/2000/svg" xmlns:xlink="http://www.w3.org/1999/xlink" x="0px" y="0px"
	 width="128px" height="128px" viewBox="0 0 128 128" style="enable-background:new 0 0 128 128;" xml:space="preserve">
<style type="text/css">
	.st0{fill:#F9F9F9;}
	.st1{fill:#248ADB;}
	.st2{fill:#BBCAFF;}
	.st3{fill:#FFB41F;}
	.st4{fill:#FF795A;}
	.st5{fill:#FCE790;}
	.st6{fill:#FFF6D2;}
	.st7{fill:#FFE7D4;}
	.st8{fill:#D2E9FF;}
	.st9{fill:#FF7A17;}
	.st10{fill:#1C74D3;}
	.st11{fill:#FF8B00;}
	.st12{fill:#FFC82C;}
	.st13{fill:#FFE08A;}
	.st14{fill:#9172C1;}
	.st15{fill:#A783FF;}
	.st16{fill:#C6B4FC;}
	.st17{fill:#FFCF06;}
	.st18{fill:#FFDC2E;}
	.st19{fill:#FFE780;}
	.st20{fill:#7854D1;}
	.st21{fill:#9877E8;}
	.st22{fill:#B7ACF9;}
	.st23{fill:#FFA52E;}
	.st24{fill:#FFB966;}
	.st25{fill:#FFFFFF;stroke:#FFFFFF;stroke-miterlimit:10;}
	.st26{fill:url(#SVGID_1_);}
	.st27{fill:url(#SVGID_2_);}
</style>
<g>
	<g>
		<path class="st0" d="M64,127C29.3,127,1,98.7,1,64S29.3,1,64,1s63,28.3,63,63S98.7,127,64,127z"/>
		<path class="st1" d="M64,2c34.2,0,62,27.8,62,62s-27.8,62-62,62S2,98.2,2,64S29.8,2,64,2 M64,0C28.7,0,0,28.7,0,64s28.7,64,64,64
			s64-28.7,64-64S99.3,0,64,0L64,0z"/>
	</g>
	<circle class="st2" cx="75.7" cy="39.6" r="8.4"/>
	<polygon class="st3" points="114,52.9 114.7,55.5 117.3,56.4 115,57.8 115,60.5 112.8,58.9 110.3,59.6 111.2,57.1 109.7,54.9 
		112.4,55 	"/>
	<polygon class="st3" points="18.6,47.8 19.7,49.5 21.7,49.6 20.4,51.1 21,53.1 19.1,52.4 17.4,53.5 17.5,51.5 15.9,50.2 17.9,49.7 
			"/>
	<circle class="st4" cx="81" cy="28" r="1.8"/>
	<circle class="st5" cx="84.1" cy="88.7" r="10.9"/>
	<circle class="st6" cx="45" cy="55.8" r="17.3"/>
	<circle class="st7" cx="45.7" cy="87.3" r="17.3"/>
	<circle class="st8" cx="96.2" cy="60" r="11.1"/>
	<circle class="st4" cx="62.1" cy="84.4" r="10.9"/>
	<circle class="st2" cx="40.7" cy="74.3" r="11.7"/>
	<g>
		<path class="st9" d="M15,70.3l-2.7-1.2c-0.5-0.2-0.7-0.8-0.5-1.3h0c0.2-0.5,0.8-0.7,1.3-0.5l2.7,1.2c0.5,0.2,0.7,0.8,0.5,1.3v0
			C16,70.3,15.5,70.5,15,70.3z"/>
		<path class="st9" d="M40.9,68.9L38,69.1c-0.5,0-1-0.4-1-0.9l0,0c0-0.5,0.4-1,0.9-1l2.9-0.2c0.5,0,1,0.4,1,0.9l0,0
			C41.9,68.3,41.5,68.8,40.9,68.9z"/>
		<path class="st9" d="M48,72.5l-1.3-2.6c-0.2-0.5,0-1.1,0.4-1.3l0,0c0.5-0.2,1.1,0,1.3,0.4l1.3,2.6c0.2,0.5,0,1.1-0.4,1.3l0,0
			C48.8,73.2,48.2,73,48,72.5z"/>
		<path class="st9" d="M25.7,72.7v-2.9c0-0.5,0.4-1,1-1h0c0.5,0,1,0.4,1,1v2.9c0,0.5-0.4,1-1,1h0C26.1,73.7,25.7,73.2,25.7,72.7z"/>
		<path class="st9" d="M54.2,69.1l1.6-2.4c0.3-0.4,0.9-0.6,1.3-0.3v0c0.4,0.3,0.6,0.9,0.3,1.3l-1.6,2.4c-0.3,0.4-0.9,0.6-1.3,0.3
			l0,0C54,70.1,53.9,69.5,54.2,69.1z"/>
		<path class="st9" d="M62.5,71.5l2.9-0.2c0.5,0,1,0.4,1,0.9l0,0c0,0.5-0.4,1-0.9,1l-2.9,0.2c-0.5,0-1-0.4-1-0.9l0,0
			C61.5,72,61.9,71.5,62.5,71.5z"/>
	</g>
	<circle class="st10" cx="25.7" cy="58.4" r="1.6"/>
	<circle class="st10" cx="59.9" cy="112" r="2.2"/>
	<circle class="st10" cx="54.8" cy="107.2" r="1.6"/>
	<circle class="st10" cx="17.4" cy="78" r="2.3"/>
	<circle class="st10" cx="104.8" cy="60" r="1.6"/>
	<circle class="st11" cx="95" cy="97.5" r="1.6"/>
	<circle class="st10" cx="89.7" cy="95.9" r="1.1"/>
	<g>
		<polygon class="st3" points="76,14.8 64,59 68.7,20.1 		"/>
		<polygon class="st12" points="53.5,21 45.7,16.5 64,59 		"/>
		<polygon class="st3" points="52.1,28 61.3,24.2 64,59 		"/>
		<polygon class="st12" points="70.9,26.9 61.3,24.2 64,59 		"/>
		<polygon class="st13" points="60.4,8.4 65.5,14.4 76,14.8 68.7,20.1 70.9,26.9 61.3,24.2 52.1,28 53.5,21 45.7,16.5 56.1,14.9 		
			"/>
	</g>
	<g>
		<polygon class="st14" points="24.6,87.9 66.7,69.9 33.3,90.3 		"/>
		<polygon class="st15" points="43.4,101.7 44.7,110.6 66.7,69.9 		"/>
		<polygon class="st14" points="49.7,98.4 41.1,93.6 66.7,69.9 		"/>
		<polygon class="st15" points="37.3,84.4 41.1,93.6 66.7,69.9 		"/>
		<polygon class="st16" points="29.2,104.1 30.8,96.4 24.6,87.9 33.3,90.3 37.3,84.4 41.1,93.6 49.7,98.4 43.4,101.7 44.7,110.6 
			37,103.4 		"/>
	</g>
	<g>
		<polygon class="st17" points="105.4,94.5 74.8,73.2 103.3,87.1 		"/>
		<polygon class="st18" points="106.8,74.4 112.4,69.1 74.8,73.2 		"/>
		<polygon class="st17" points="101.8,71.4 102.2,80 74.8,73.2 		"/>
		<polygon class="st18" points="97.5,87.1 102.2,80 74.8,73.2 		"/>
		<polygon class="st19" points="114.6,83.3 108.6,85.9 105.4,94.5 103.3,87.1 97.5,87.1 102.2,80 101.8,71.4 106.8,74.4 112.4,69.1 
			110.8,78 		"/>
	</g>
	<g>
		<polygon class="st20" points="109.2,40.6 75.7,59.2 101.8,39.3 		"/>
		<polygon class="st21" points="92.4,30.7 90.5,23.4 75.7,59.2 		"/>
		<polygon class="st20" points="87.4,34 95,37.3 75.7,59.2 		"/>
		<polygon class="st21" points="99,44.6 95,37.3 75.7,59.2 		"/>
		<polygon class="st22" points="104,27.5 103.3,34 109.2,40.6 101.8,39.3 99,44.6 95,37.3 87.4,34 92.4,30.7 90.5,23.4 97.5,28.7 		
			"/>
	</g>
	<g>
		<polygon class="st11" points="42,27.8 56.4,56.5 40.7,34 		"/>
		<polygon class="st23" points="33.2,41.5 27,42.9 56.4,56.5 		"/>
		<polygon class="st11" points="35.7,45.9 38.7,39.6 56.4,56.5 		"/>
		<polygon class="st23" points="45,36.5 38.7,39.6 56.4,56.5 		"/>
		<polygon class="st24" points="30.9,31.7 36.3,32.5 42,27.8 40.7,34 45,36.5 38.7,39.6 35.7,45.9 33.2,41.5 27,42.9 31.7,37.2 		
			"/>
	</g>
	<g>
		<polygon class="st3" points="58.7,105.6 65.2,78 63.1,102.1 		"/>
		<polygon class="st12" points="72.5,101.3 77.4,103.9 65.2,78 		"/>
		<polygon class="st3" points="73.2,96.9 67.6,99.5 65.2,78 		"/>
		<polygon class="st12" points="61.6,98 67.6,99.5 65.2,78 		"/>
		<polygon class="st13" points="68.5,109.2 65.2,105.6 58.7,105.6 63.1,102.1 61.6,98 67.6,99.5 73.2,96.9 72.5,101.3 77.4,103.9 
			71,105.1 		"/>
	</g>
	<g>
		<path class="st9" d="M68.3,68.4l-2.9,0c-0.5,0-1-0.4-1-1l0,0c0-0.5,0.4-1,1-1l2.9,0c0.5,0,1,0.4,1,1l0,0
			C69.3,67.9,68.9,68.4,68.3,68.4z"/>
		<path class="st9" d="M91.4,56.4l-2.5,1.4c-0.5,0.3-1.1,0.1-1.3-0.4l0,0c-0.3-0.5-0.1-1.1,0.4-1.3l2.5-1.4c0.5-0.3,1.1-0.1,1.3,0.4
			l0,0C92,55.5,91.9,56.1,91.4,56.4z"/>
		<path class="st9" d="M99.4,56.8L97.1,55c-0.4-0.3-0.5-0.9-0.1-1.4v0c0.3-0.4,0.9-0.5,1.4-0.1l2.2,1.8c0.4,0.3,0.5,0.9,0.1,1.4l0,0
			C100.4,57.1,99.8,57.2,99.4,56.8z"/>
		<path class="st9" d="M79.1,66.1l-1.2-2.6c-0.2-0.5,0-1.1,0.5-1.3h0c0.5-0.2,1.1,0,1.3,0.5l1.2,2.6c0.2,0.5,0,1.1-0.5,1.3l0,0
			C79.9,66.9,79.3,66.6,79.1,66.1z"/>
		<path class="st9" d="M103.6,51.1l0.5-2.9c0.1-0.5,0.6-0.9,1.1-0.8h0c0.5,0.1,0.9,0.6,0.8,1.1l-0.5,2.9c-0.1,0.5-0.6,0.9-1.1,0.8h0
			C103.9,52.1,103.5,51.6,103.6,51.1z"/>
		<path class="st9" d="M112.1,49.9l2.5-1.4c0.5-0.3,1.1-0.1,1.3,0.4v0c0.3,0.5,0.1,1.1-0.4,1.3l-2.5,1.4c-0.5,0.3-1.1,0.1-1.3-0.4
			l0,0C111.5,50.8,111.7,50.2,112.1,49.9z"/>
	</g>
	<g>
		<polygon class="st25" points="34.4,48.1 34.4,63.4 42.8,60.8 42.8,88 60.7,88 60.7,40.1 53.9,40.1 		"/>
		<path class="st25" d="M91.3,45.4c-3.3-3.7-8.1-5.6-14.1-5.6c0,0,0,0,0,0c-6.1,0-10.8,1.9-14.1,5.6c-3.2,3.5-4.8,8.7-4.8,15.2
			l0,7.9c0.1,6.3,1.7,11.3,4.8,14.8c3.3,3.7,8.1,5.6,14.1,5.6c0,0,0,0,0,0c6.2,0,10.9-1.9,14.2-5.7c3.1-3.6,4.7-8.7,4.7-15.2l0-7.9
			C96.1,53.9,94.5,48.9,91.3,45.4z"/>
		<g>
			<linearGradient id="SVGID_1_" gradientUnits="userSpaceOnUse" x1="47.516" y1="44.4522" x2="47.516" y2="84.3671">
				<stop  offset="0" style="stop-color:#FFCB55"/>
				<stop  offset="1" style="stop-color:#7E3FFF"/>
			</linearGradient>
			<polygon class="st26" points="37.7,50.4 37.7,60.3 46.1,57.7 46.1,84.4 57.4,84.4 57.4,44.5 54.2,44.5 			"/>
			<linearGradient id="SVGID_2_" gradientUnits="userSpaceOnUse" x1="77.2291" y1="44.0151" x2="77.2291" y2="84.8623">
				<stop  offset="0" style="stop-color:#FFCB55"/>
				<stop  offset="1" style="stop-color:#7E3FFF"/>
			</linearGradient>
			<path class="st27" d="M87.7,48.6c-2.5-3.1-6-4.6-10.5-4.6c0,0,0,0,0,0c-4.5,0-8.1,1.6-10.6,4.7c-2.4,2.9-3.6,7.2-3.6,12.7l0,6.6
				c0.1,5.2,1.3,9.4,3.6,12.3c2.5,3.1,6,4.6,10.5,4.6c0,0,0,0,0,0c4.6,0,8.2-1.6,10.6-4.7c2.3-3,3.5-7.2,3.5-12.6l0-6.6
				C91.3,55.7,90.1,51.5,87.7,48.6z M77.3,75c-1.2,0-1.7-0.5-2-1.1c-0.4-0.8-0.9-2.3-0.9-5.5l0-8.7c0.1-2.9,0.5-4.3,1-5
				c0.3-0.5,0.7-0.9,1.9-0.9c0,0,0,0,0,0c1.2,0,1.7,0.5,2,1c0.4,0.7,0.9,2.2,0.9,5.4l0,8.5c0,3-0.5,4.5-0.9,5.2
				C78.9,74.5,78.5,75,77.3,75z"/>
		</g>
	</g>
</g>
</svg>
