<?xml version="1.0" encoding="utf-8"?>
<!-- Generator: Adobe Illustrator 19.2.1, SVG Export Plug-In . SVG Version: 6.00 Build 0)  -->
<svg version="1.0" id="Layer_1" xmlns="http://www.w3.org/2000/svg" xmlns:xlink="http://www.w3.org/1999/xlink" x="0px" y="0px"
	 width="75px" height="75px" viewBox="0 0 75 75" style="enable-background:new 0 0 75 75;" xml:space="preserve">
<style type="text/css">
	.st0{fill:#F9F9F9;}
	.st1{fill:#8600B2;}
	.st2{fill:#BBCAFF;}
	.st3{fill:#FFB41F;}
	.st4{fill:#FF795A;}
	.st5{fill:#FCE790;}
	.st6{fill:#FFF6D2;}
	.st7{fill:#FFE7D4;}
	.st8{fill:#D2E9FF;}
	.st9{fill:#FF7A17;}
	.st10{fill:#1C74D3;}
	.st11{fill:#FF8B00;}
	.st12{fill:#FFC82C;}
	.st13{fill:#FFE08A;}
	.st14{fill:#9172C1;}
	.st15{fill:#A783FF;}
	.st16{fill:#C6B4FC;}
	.st17{fill:#FFCF06;}
	.st18{fill:#FFDC2E;}
	.st19{fill:#FFE780;}
	.st20{fill:#7854D1;}
	.st21{fill:#9877E8;}
	.st22{fill:#B7ACF9;}
	.st23{fill:#FFA52E;}
	.st24{fill:#FFB966;}
	.st25{fill:#FFFFFF;stroke:#FFFFFF;stroke-miterlimit:10;}
	.st26{fill:url(#SVGID_1_);}
	.st27{fill:url(#SVGID_2_);}
</style>
<g>
	<g>
		<path class="st0" d="M37.5,73.5c-19.9,0-36-16.1-36-36s16.1-36,36-36s36,16.1,36,36S57.4,73.5,37.5,73.5z"/>
		<path class="st1" d="M37.5,3C56.5,3,72,18.5,72,37.5S56.5,72,37.5,72S3,56.5,3,37.5S18.5,3,37.5,3 M37.5,0C16.8,0,0,16.8,0,37.5
			S16.8,75,37.5,75S75,58.2,75,37.5S58.2,0,37.5,0L37.5,0z"/>
	</g>
	<circle class="st2" cx="44.4" cy="23.2" r="4.9"/>
	<polygon class="st3" points="66.8,31 67.2,32.5 68.7,33 67.4,33.9 67.4,35.5 66.1,34.5 64.6,34.9 65.2,33.5 64.3,32.2 65.8,32.2 	
		"/>
	<polygon class="st3" points="10.9,28 11.5,29 12.7,29 12,30 12.3,31.1 11.2,30.7 10.2,31.4 10.3,30.2 9.3,29.4 10.5,29.1 	"/>
	<circle class="st4" cx="47.4" cy="16.4" r="1.1"/>
	<circle class="st5" cx="49.3" cy="52" r="6.4"/>
	<circle class="st6" cx="26.4" cy="32.7" r="10.1"/>
	<circle class="st7" cx="26.8" cy="51.1" r="10.1"/>
	<circle class="st8" cx="56.4" cy="35.2" r="6.5"/>
	<circle class="st4" cx="36.4" cy="49.4" r="6.4"/>
	<circle class="st2" cx="23.8" cy="43.5" r="6.9"/>
	<g>
		<path class="st9" d="M8.8,41.2l-1.6-0.7c-0.3-0.1-0.4-0.5-0.3-0.7h0c0.1-0.3,0.5-0.4,0.7-0.3l1.6,0.7c0.3,0.1,0.4,0.5,0.3,0.7l0,0
			C9.4,41.2,9.1,41.3,8.8,41.2z"/>
		<path class="st9" d="M24,40.3l-1.7,0.1c-0.3,0-0.6-0.2-0.6-0.5l0,0c0-0.3,0.2-0.6,0.5-0.6l1.7-0.1c0.3,0,0.6,0.2,0.6,0.5l0,0
			C24.5,40,24.3,40.3,24,40.3z"/>
		<path class="st9" d="M28.1,42.5L27.4,41c-0.1-0.3,0-0.6,0.3-0.8h0c0.3-0.1,0.6,0,0.8,0.3l0.8,1.5c0.1,0.3,0,0.6-0.3,0.8h0
			C28.6,42.9,28.3,42.8,28.1,42.5z"/>
		<path class="st9" d="M15,42.7v-2c0-0.2,0.2-0.4,0.4-0.4h0.3c0.2,0,0.4,0.2,0.4,0.4v2c0,0.2-0.2,0.4-0.4,0.4h-0.3
			C15.2,43.2,15,43,15,42.7z"/>
		<path class="st9" d="M31.8,40.5l1-1.4c0.2-0.3,0.5-0.3,0.8-0.2h0c0.3,0.2,0.3,0.5,0.2,0.8l-1,1.4c-0.2,0.3-0.5,0.3-0.8,0.2h0
			C31.7,41.1,31.6,40.7,31.8,40.5z"/>
		<path class="st9" d="M36.6,41.9l1.7-0.1c0.3,0,0.6,0.2,0.6,0.5l0,0c0,0.3-0.2,0.6-0.5,0.6L36.7,43c-0.3,0-0.6-0.2-0.6-0.5l0,0
			C36.1,42.2,36.3,41.9,36.6,41.9z"/>
	</g>
	<circle class="st10" cx="15" cy="34.2" r="0.9"/>
	<circle class="st10" cx="35.1" cy="65.6" r="1.3"/>
	<circle class="st10" cx="32.1" cy="62.8" r="0.9"/>
	<circle class="st10" cx="10.2" cy="45.7" r="1.4"/>
	<circle class="st10" cx="61.4" cy="35.2" r="0.9"/>
	<circle class="st11" cx="55.7" cy="57.1" r="0.9"/>
	<circle class="st10" cx="52.5" cy="56.2" r="0.7"/>
	<g>
		<polygon class="st3" points="44.5,8.7 37.5,34.6 40.2,11.8 		"/>
		<polygon class="st12" points="31.4,12.3 26.8,9.7 37.5,34.6 		"/>
		<polygon class="st3" points="30.5,16.4 35.9,14.2 37.5,34.6 		"/>
		<polygon class="st12" points="41.5,15.8 35.9,14.2 37.5,34.6 		"/>
		<polygon class="st13" points="35.4,4.9 38.4,8.4 44.5,8.7 40.2,11.8 41.5,15.8 35.9,14.2 30.5,16.4 31.4,12.3 26.8,9.7 32.9,8.7 
					"/>
	</g>
	<g>
		<polygon class="st14" points="14.4,51.5 39.1,41 19.5,52.9 		"/>
		<polygon class="st15" points="25.4,59.6 26.2,64.8 39.1,41 		"/>
		<polygon class="st14" points="29.1,57.7 24.1,54.8 39.1,41 		"/>
		<polygon class="st15" points="21.9,49.4 24.1,54.8 39.1,41 		"/>
		<polygon class="st16" points="17.1,61 18,56.5 14.4,51.5 19.5,52.9 21.9,49.4 24.1,54.8 29.1,57.7 25.4,59.6 26.2,64.8 21.7,60.6 
					"/>
	</g>
	<g>
		<polygon class="st17" points="61.7,55.3 43.8,42.9 60.5,51 		"/>
		<polygon class="st18" points="62.6,43.6 65.9,40.5 43.8,42.9 		"/>
		<polygon class="st17" points="59.7,41.8 59.9,46.8 43.8,42.9 		"/>
		<polygon class="st18" points="57.1,51 59.9,46.8 43.8,42.9 		"/>
		<polygon class="st19" points="67.1,48.8 63.6,50.3 61.7,55.3 60.5,51 57.1,51 59.9,46.8 59.7,41.8 62.6,43.6 65.9,40.5 64.9,45.7 
					"/>
	</g>
	<g>
		<polygon class="st20" points="64,23.8 44.4,34.7 59.6,23 		"/>
		<polygon class="st21" points="54.1,18 53,13.7 44.4,34.7 		"/>
		<polygon class="st20" points="51.2,19.9 55.7,21.9 44.4,34.7 		"/>
		<polygon class="st21" points="58,26.1 55.7,21.9 44.4,34.7 		"/>
		<polygon class="st22" points="60.9,16.1 60.5,19.9 64,23.8 59.6,23 58,26.1 55.7,21.9 51.2,19.9 54.1,18 53,13.7 57.2,16.8 		"/>
	</g>
	<g>
		<polygon class="st11" points="24.6,16.3 33.1,33.1 23.8,19.9 		"/>
		<polygon class="st23" points="19.4,24.3 15.8,25.1 33.1,33.1 		"/>
		<polygon class="st11" points="20.9,26.9 22.7,23.2 33.1,33.1 		"/>
		<polygon class="st23" points="26.4,21.4 22.7,23.2 33.1,33.1 		"/>
		<polygon class="st24" points="18.1,18.6 21.3,19.1 24.6,16.3 23.8,19.9 26.4,21.4 22.7,23.2 20.9,26.9 19.4,24.3 15.8,25.1 
			18.6,21.8 		"/>
	</g>
	<g>
		<polygon class="st3" points="34.4,61.9 38.2,45.7 37,59.8 		"/>
		<polygon class="st12" points="42.5,59.4 45.4,60.9 38.2,45.7 		"/>
		<polygon class="st3" points="42.9,56.8 39.6,58.3 38.2,45.7 		"/>
		<polygon class="st12" points="36.1,57.4 39.6,58.3 38.2,45.7 		"/>
		<polygon class="st13" points="40.1,64 38.2,61.9 34.4,61.9 37,59.8 36.1,57.4 39.6,58.3 42.9,56.8 42.5,59.4 45.4,60.9 41.6,61.6 
					"/>
	</g>
	<g>
		<path class="st9" d="M40,40.1l-1.7,0c-0.3,0-0.6-0.2-0.6-0.6v0c0-0.3,0.2-0.6,0.6-0.6l1.7,0c0.3,0,0.6,0.2,0.6,0.6v0
			C40.6,39.8,40.4,40.1,40,40.1z"/>
		<path class="st9" d="M53.6,33l-1.5,0.8c-0.3,0.2-0.6,0.1-0.8-0.2v0c-0.2-0.3-0.1-0.6,0.2-0.8l1.5-0.8c0.3-0.2,0.6-0.1,0.8,0.2v0
			C53.9,32.5,53.8,32.9,53.6,33z"/>
		<path class="st9" d="M58.2,33.3l-1.3-1.1c-0.2-0.2-0.3-0.6-0.1-0.8v0c0.2-0.2,0.6-0.3,0.8-0.1l1.3,1.1c0.2,0.2,0.3,0.6,0.1,0.8
			l0,0C58.8,33.5,58.5,33.5,58.2,33.3z"/>
		<path class="st9" d="M46.3,38.8l-0.7-1.6c-0.1-0.3,0-0.6,0.3-0.8l0,0c0.3-0.1,0.6,0,0.8,0.3l0.7,1.6c0.1,0.3,0,0.6-0.3,0.8l0,0
			C46.8,39.2,46.5,39,46.3,38.8z"/>
		<path class="st9" d="M60.7,29.9l0.3-1.7c0.1-0.3,0.3-0.5,0.7-0.5h0c0.3,0.1,0.5,0.3,0.5,0.7l-0.3,1.7c-0.1,0.3-0.3,0.5-0.7,0.5
			l0,0C60.9,30.5,60.7,30.2,60.7,29.9z"/>
		<path class="st9" d="M65.7,29.2l1.5-0.8c0.3-0.2,0.6-0.1,0.8,0.2l0,0c0.2,0.3,0.1,0.6-0.2,0.8l-1.5,0.8c-0.3,0.2-0.6,0.1-0.8-0.2
			l0,0C65.3,29.7,65.4,29.4,65.7,29.2z"/>
	</g>
	<g>
		<polygon class="st25" points="20.1,28.2 20.1,37.2 25.1,35.7 25.1,51.6 35.6,51.6 35.6,23.5 31.6,23.5 		"/>
		<path class="st25" d="M53.5,26.6c-1.9-2.2-4.7-3.3-8.3-3.3c0,0,0,0,0,0c-3.6,0-6.3,1.1-8.3,3.3c-1.9,2.1-2.8,5.1-2.8,8.9l0,4.7
			c0,3.7,1,6.6,2.8,8.7c1.9,2.2,4.7,3.3,8.3,3.3c0,0,0,0,0,0c3.6,0,6.4-1.1,8.3-3.3c1.8-2.1,2.8-5.1,2.8-8.9l0-4.7
			C56.3,31.6,55.4,28.7,53.5,26.6z"/>
		<g>
			<linearGradient id="SVGID_1_" gradientUnits="userSpaceOnUse" x1="27.8414" y1="26.0462" x2="27.8414" y2="49.4339">
				<stop  offset="0" style="stop-color:#FFCB55"/>
				<stop  offset="1" style="stop-color:#7E3FFF"/>
			</linearGradient>
			<polygon class="st26" points="22.1,29.5 22.1,35.4 27,33.8 27,49.4 33.6,49.4 33.6,26 31.7,26 			"/>
			<linearGradient id="SVGID_2_" gradientUnits="userSpaceOnUse" x1="45.2514" y1="25.7901" x2="45.2514" y2="49.724">
				<stop  offset="0" style="stop-color:#FFCB55"/>
				<stop  offset="1" style="stop-color:#7E3FFF"/>
			</linearGradient>
			<path class="st27" d="M51.4,28.5c-1.4-1.8-3.5-2.7-6.2-2.7c0,0,0,0,0,0c-2.7,0-4.7,0.9-6.2,2.7c-1.4,1.7-2.1,4.2-2.1,7.4l0,3.9
				c0,3.1,0.7,5.5,2.1,7.2c1.4,1.8,3.5,2.7,6.2,2.7c0,0,0,0,0,0c2.7,0,4.8-0.9,6.2-2.8c1.4-1.7,2.1-4.2,2.1-7.4l0-3.9
				C53.5,32.6,52.8,30.2,51.4,28.5z M45.3,44c-0.7,0-1-0.3-1.2-0.6c-0.2-0.4-0.5-1.4-0.5-3.2l0-5.1c0-1.7,0.3-2.5,0.6-2.9
				c0.2-0.3,0.4-0.6,1.1-0.6c0,0,0,0,0,0c0.7,0,1,0.3,1.2,0.6c0.2,0.4,0.5,1.3,0.5,3.2l0,5c0,1.8-0.3,2.6-0.5,3.1
				C46.2,43.7,46,44,45.3,44z"/>
		</g>
	</g>
</g>
</svg>
