<?xml version="1.0" encoding="utf-8"?>
<!-- Generator: Adobe Illustrator 19.2.1, SVG Export Plug-In . SVG Version: 6.00 Build 0)  -->
<svg version="1.0" id="Layer_1" xmlns="http://www.w3.org/2000/svg" xmlns:xlink="http://www.w3.org/1999/xlink" x="0px" y="0px"
	 width="128px" height="128px" viewBox="0 0 128 128" style="enable-background:new 0 0 128 128;" xml:space="preserve">
<style type="text/css">
	.st0{fill:#FFFDD6;}
	.st1{fill:#248ADB;}
	.st2{fill:#115CD3;}
	.st3{fill:#6DD0F7;}
	.st4{fill:#FFA81E;}
	.st5{fill:#BA5F1A;}
	.st6{fill:#FC4380;}
	.st7{fill:#BBE5F2;}
	.st8{fill:#FFD400;}
	.st9{fill:#9B5918;}
	.st10{fill:#FFB41F;}
	.st11{fill:#64F9AB;}
	.st12{fill:#1C74D3;}
</style>
<g>
	<g>
		<path class="st0" d="M64,127C29.3,127,1,98.7,1,64S29.3,1,64,1s63,28.3,63,63S98.7,127,64,127z"/>
		<path class="st1" d="M64,2c34.2,0,62,27.8,62,62s-27.8,62-62,62S2,98.2,2,64S29.8,2,64,2 M64,0C28.7,0,0,28.7,0,64s28.7,64,64,64
			s64-28.7,64-64S99.3,0,64,0L64,0z"/>
	</g>
	<polygon class="st2" points="67.5,15.9 42.9,24.7 42.9,38.5 55.8,34.5 55.8,75.4 71.6,75.4 71.6,15.9 	"/>
	<path class="st3" d="M60.5,75.5V60.9c0-1.9,1.5-3.4,3.4-3.4h0.3c1.9,0,3.4,1.5,3.4,3.4v14.6H60.5z"/>
	<polygon class="st4" points="43.3,108.5 35.3,87.1 92.7,87.1 91,91.9 85.3,108.5 	"/>
	<path class="st5" d="M92,86c0-4.4-3.6-8-8-8l-40.8,0.3c-4.4,0-7.9,4.2-7.9,8.6l1,2.9c0,0,1.6,3.7,5.4,2.8c3.3-0.8,2.6-4.9,5.8-5
		c2.9,0,3,4.2,6.7,4.2c3.1,0,3.6-4.1,5.6-4.2c2-0.1,2,3.2,4.3,3.2c2.3,0,1.6-3.3,4.3-3.3c3.9-0.1,4.1,5.3,9.3,5.3
		c5.2,0,5.8-5.7,8.4-5.7c2.9,0,1.6,4.8,4.9,4.7c0,0,0.7-1.6,1-3C92.3,87.7,92,86,92,86z"/>
	<path class="st6" d="M93.2,83c0-4.6-4.2-7.9-8.6-7.9L42.9,75c-4.4,0-8.3,3.6-8.3,8c0,0,0.1,1.9,0.6,3.7c0.3,1,0.2,2.7,4.1,2.7
		s5-3,8.2-3.1c2.9,0,2.9,3.5,6.6,3.5c3.1,0,4.1-3.2,6.1-3.3c2-0.1,1.6,1.4,3.9,1.4c2.3,0,1.6-1.6,4.4-1.6c3.9-0.1,4,3.6,9.3,3.6
		c5.2,0,5.5-3.5,8.1-3.5c2.9,0,3,2.7,6.2,2.6C92,88.9,93.1,86.7,93.2,83z"/>
	<path class="st7" d="M98.8,112.8h-70c-0.3,0-0.6-0.3-0.6-0.6v-3.1c0-0.3,0.3-0.6,0.6-0.6h70c0.3,0,0.6,0.3,0.6,0.6v3.1
		C99.4,112.5,99.1,112.8,98.8,112.8z"/>
	<path class="st8" d="M64,38.6c0,0-5.8,5.4-5.8,10.7c0,4.9,5.8,5.5,5.8,5.5s5.8-0.6,5.8-5.5C69.8,44.1,64,38.6,64,38.6z"/>
	<g>
		<path class="st9" d="M40.1,82.3l-2.7-1.2c-0.5-0.2-0.7-0.8-0.5-1.3l0,0c0.2-0.5,0.8-0.7,1.3-0.5l2.7,1.2c0.5,0.2,0.7,0.8,0.5,1.3
			l0,0C41.2,82.3,40.6,82.5,40.1,82.3z"/>
		<path class="st9" d="M66.1,80.9l-2.9,0.2c-0.5,0-1-0.4-1-0.9l0,0c0-0.5,0.4-1,0.9-1l2.9-0.2c0.5,0,1,0.4,1,0.9l0,0
			C67,80.3,66.6,80.8,66.1,80.9z"/>
		<path class="st9" d="M73.2,84.5l-1.3-2.6c-0.2-0.5,0-1.1,0.4-1.3h0c0.5-0.2,1.1,0,1.3,0.4l1.3,2.6c0.2,0.5,0,1.1-0.4,1.3l0,0
			C74,85.2,73.4,85,73.2,84.5z"/>
		<path class="st9" d="M50.8,84.7v-2.9c0-0.5,0.4-1,1-1l0,0c0.5,0,1,0.4,1,1v2.9c0,0.5-0.4,1-1,1l0,0C51.3,85.7,50.8,85.2,50.8,84.7
			z"/>
		<path class="st9" d="M79.4,81.1l1.6-2.4c0.3-0.4,0.9-0.6,1.3-0.3l0,0c0.4,0.3,0.6,0.9,0.3,1.3L81,82.1c-0.3,0.4-0.9,0.6-1.3,0.3
			l0,0C79.2,82.1,79.1,81.5,79.4,81.1z"/>
		<path class="st9" d="M87.6,83.5l2.9-0.2c0.5,0,1,0.4,1,0.9l0,0c0,0.5-0.4,1-0.9,1l-2.9,0.2c-0.5,0-1-0.4-1-0.9l0,0
			C86.7,84,87.1,83.5,87.6,83.5z"/>
	</g>
	<polygon class="st10" points="45,58 45.7,60.6 48.2,61.5 46,62.9 45.9,65.6 43.8,64 41.2,64.7 42.2,62.2 40.6,60 43.3,60.1 	"/>
	<g>
		<path class="st3" d="M24.6,67.8c-1,0.4-2.2,0.5-3.5,0c-1.8-0.7-2.4-2-2.8-2.9c-0.3-0.7-0.5-1.2-1-1.5c-1.4-0.9-2.5-0.1-2.5-0.1
			c-0.6,0.5-1.5,0.3-2-0.3s-0.3-1.5,0.3-2c1-0.7,3.3-1.6,5.7,0c1.2,0.8,1.7,1.8,2.1,2.7c0.4,0.9,0.6,1.2,1.2,1.5
			c1.2,0.4,2.2-0.4,2.3-0.5c0.4-0.4,4.1-4.2,7.9-2.5c0.7,0.3,1,1.1,0.7,1.9c-0.3,0.7-1.1,1-1.9,0.7c-2.1-0.9-4.7,1.8-4.8,1.9l0,0
			C26,67.1,25.4,67.5,24.6,67.8z"/>
	</g>
	<g>
		<path class="st6" d="M38.2,47.5c-0.6,0.2-1.3-0.1-1.6-0.7c-1.1-2-4.9-1.4-4.9-1.4l-0.1,0c-1.2,0.2-3.6-0.1-4.9-2.2
			c-1-1.6-0.7-3-0.5-4c0.2-0.8,0.3-1.2,0.1-1.8c-0.6-1.6-1.9-1.6-2-1.6c-0.8,0-1.4-0.6-1.4-1.4c0-0.8,0.6-1.4,1.4-1.4
			c1.2,0,3.6,0.7,4.6,3.4c0.5,1.4,0.3,2.5,0.1,3.4c-0.2,0.9-0.3,1.3,0.1,1.9c0.7,1.1,2,1,2.2,1c0.6-0.1,5.8-0.9,7.8,2.8
			c0.4,0.7,0.1,1.5-0.5,1.9C38.3,47.4,38.3,47.4,38.2,47.5z"/>
	</g>
	<circle class="st11" cx="33" cy="53.4" r="2.3"/>
	<circle class="st12" cx="92.2" cy="66.5" r="1.6"/>
	<circle class="st3" cx="105.6" cy="68.1" r="2.4"/>
	<circle class="st6" cx="44.1" cy="51.8" r="1.6"/>
	<polygon class="st8" points="88,48.8 89.5,51.1 92.2,51.2 90.4,53.3 91.2,55.9 88.7,54.9 86.5,56.4 86.6,53.7 84.5,52.1 87.1,51.4 
			"/>
	<polygon class="st10" points="94.6,39.3 95.7,41 97.7,41.1 96.4,42.6 97,44.6 95.1,43.9 93.4,45 93.5,43 91.9,41.7 93.9,41.2 	"/>
	<g>
		<path class="st11" d="M98.8,61.6c-0.1,0-0.2,0-0.2-0.1c-0.7-0.3-1-1.2-0.7-1.9c0.5-1.1,2.1-2.9,5-2.7c1.5,0.1,2.4,0.8,3.1,1.4
			c0.7,0.6,1.1,0.8,1.8,0.7c1.3-0.2,1.7-1.4,1.8-1.6c0.2-0.6,1.6-5.6,5.8-6c0.8-0.1,1.4,0.5,1.5,1.3c0.1,0.8-0.5,1.4-1.3,1.5
			c-2.3,0.2-3.3,3.9-3.3,3.9l0,0.1c-0.3,1.2-1.6,3.2-4.1,3.5c-1.9,0.3-3-0.6-3.9-1.2c-0.6-0.5-1-0.8-1.6-0.8
			c-1.7-0.1-2.3,1.1-2.3,1.1C100.1,61.5,99.4,61.8,98.8,61.6z"/>
	</g>
	<circle class="st11" cx="78.6" cy="44.9" r="1.7"/>
	<circle class="st6" cx="12.5" cy="69.7" r="2.1"/>
	<circle class="st6" cx="80.3" cy="35.1" r="2.1"/>
	<path class="st4" d="M64,54.9c0,0-5.8-0.6-5.8-5.5c0-5.2,5.8-10.7,5.8-10.7V54.9z"/>
</g>
</svg>
