<?xml version="1.0" encoding="utf-8"?>
<!-- Generator: Adobe Illustrator 19.2.1, SVG Export Plug-In . SVG Version: 6.00 Build 0)  -->
<svg version="1.0" id="Layer_1" xmlns="http://www.w3.org/2000/svg" xmlns:xlink="http://www.w3.org/1999/xlink" x="0px" y="0px"
	 width="75px" height="75px" viewBox="0 0 75 75" style="enable-background:new 0 0 75 75;" xml:space="preserve">
<style type="text/css">
	.st0{fill:#FFFFFF;}
	.st1{fill:#CD6925;}
	.st2{fill:#6DD0F7;}
	.st3{fill:#FFB41F;}
	.st4{fill:#FC974C;}
	.st5{fill:#FC4380;}
	.st6{fill:#FFD400;}
	.st7{fill:#F42A86;}
	.st8{fill:#FF80AA;}
	.st9{fill:#FCD56B;}
	.st10{fill:#FC9F60;}
	.st11{fill:#115CD3;}
	.st12{clip-path:url(#SVGID_2_);fill:#0B61A8;}
	.st13{fill:#E0075A;}
	.st14{fill:url(#SVGID_3_);}
	.st15{fill:#9B5918;}
	.st16{fill:#E2A86D;}
</style>
<g>
	<g>
		<path class="st0" d="M37.5,73.5c-19.9,0-36-16.1-36-36s16.1-36,36-36s36,16.1,36,36S57.4,73.5,37.5,73.5z"/>
		<path class="st1" d="M37.5,3C56.5,3,72,18.5,72,37.5S56.5,72,37.5,72S3,56.5,3,37.5S18.5,3,37.5,3 M37.5,0C16.8,0,0,16.8,0,37.5
			S16.8,75,37.5,75S75,58.2,75,37.5S58.2,0,37.5,0L37.5,0z"/>
	</g>
	<path class="st2" d="M52.7,68.1H22.6c-0.2,0-0.4-0.2-0.4-0.4v-1.8c0-0.2,0.2-0.4,0.4-0.4h30.2c0.2,0,0.4,0.2,0.4,0.4v1.8
		C53.1,67.9,52.9,68.1,52.7,68.1z"/>
	<polygon class="st3" points="53,8.9 53.4,10.4 54.9,11 53.6,11.8 53.6,13.4 52.3,12.4 50.8,12.9 51.4,11.4 50.5,10.1 52.1,10.2 	
		"/>
	<circle class="st4" cx="8.8" cy="47.5" r="1.4"/>
	<circle class="st5" cx="47.5" cy="16.2" r="0.8"/>
	<circle class="st5" cx="12.9" cy="31.3" r="0.8"/>
	<polygon class="st6" points="12.7,15.9 13.6,17.3 15.1,17.3 14.1,18.5 14.6,20.1 13.1,19.5 11.8,20.4 11.9,18.8 10.6,17.8 
		12.2,17.4 	"/>
	<polygon class="st3" points="17,19.8 17.7,20.8 18.9,20.9 18.1,21.8 18.4,23 17.3,22.5 16.3,23.2 16.4,22 15.4,21.3 16.6,21 	"/>
	<polygon class="st3" points="56.2,21.5 56.8,22.5 58,22.6 57.3,23.5 57.6,24.6 56.5,24.2 55.5,24.9 55.6,23.7 54.6,23 55.8,22.7 	
		"/>
	<polygon class="st3" points="61.7,25.1 62.1,25.7 62.9,25.8 62.4,26.4 62.6,27.1 61.9,26.9 61.2,27.3 61.2,26.5 60.6,26 61.4,25.8 
			"/>
	<circle class="st2" cx="7.4" cy="32.3" r="1.1"/>
	<circle class="st2" cx="61.7" cy="18.1" r="1.1"/>
	<circle class="st7" cx="65.7" cy="26.2" r="1.1"/>
	<circle class="st7" cx="22.2" cy="14.8" r="1.1"/>
	<circle class="st8" cx="46.1" cy="11.2" r="1.4"/>
	<circle class="st2" cx="25.9" cy="10.6" r="1.4"/>
	<g>
		<g>
			
				<ellipse transform="matrix(0.9997 -2.467638e-002 2.467638e-002 0.9997 -0.7967 0.6018)" class="st8" cx="24" cy="32.6" rx="5.7" ry="7.8"/>
			<path class="st8" d="M24.2,40.3L23.5,41c0,0,0.9-0.1,1.2,0.2C25.1,41.5,24.2,40.3,24.2,40.3z"/>
		</g>
	</g>
	<g>
		<g>
			<g>
				<ellipse transform="matrix(0.9659 -0.2589 0.2589 0.9659 -9.3843 5.5011)" class="st9" cx="16.2" cy="38.4" rx="4.7" ry="5.5"/>
			</g>
			<g>
				<path class="st9" d="M17.6,43.7c0,0-0.8,1.5-0.3,0.8c0.4-0.4,0.9-0.3,0.9-0.3L17.6,43.7z"/>
			</g>
		</g>
	</g>
	<g>
		<g>
			
				<ellipse transform="matrix(0.4023 -0.9155 0.9155 0.4023 -0.2784 76.5879)" class="st10" cx="58.5" cy="38.5" rx="7.5" ry="6.5"/>
			<path class="st10" d="M56.4,46.5c1.6,0.7,0-0.9,0-0.9S54.9,45.9,56.4,46.5z"/>
		</g>
	</g>
	<polygon class="st11" points="39.9,11.3 25.4,16.5 25.4,24.6 33,22.2 33,46.2 42.2,46.2 42.2,11.3 	"/>
	<g>
		<path class="st8" d="M25,54.6c-0.9-1.3-0.6-2.4-0.2-3.4c0.2-0.4,0.3-0.9,0.4-1.4c0.1-0.7-0.2-1.2-0.5-1.7
			c-0.4-0.6-0.8-1.3-0.7-2.5c0.1-1.3,0.6-1.7,1-2c0.4-0.3,0.7-0.6,0.8-1.4c0.1-0.5,0-0.9-0.3-1.2c-0.5-0.6-1.3-0.6-1.3-0.6l0-0.2
			c0,0,1,0.1,1.5,0.7c0.3,0.4,0.4,0.8,0.3,1.4c-0.1,0.9-0.5,1.2-0.9,1.5c-0.4,0.3-0.9,0.7-0.9,1.8c-0.1,1.2,0.3,1.8,0.7,2.4
			c0.3,0.5,0.7,1,0.6,1.8c-0.1,0.5-0.2,1-0.4,1.5c-0.4,1-0.7,1.9,0.2,3.1L25,54.6z"/>
	</g>
	<g>
		
			<ellipse transform="matrix(5.231151e-002 -0.9986 0.9986 5.231151e-002 23.8483 77.3344)" class="st2" cx="52.7" cy="26.1" rx="8.5" ry="6.1"/>
		<path class="st2" d="M52,35.6c0,0,0.9-0.2,1.4,0.3c0.2,0.2-0.8-1.3-0.8-1.3L52,35.6z"/>
	</g>
	<g>
		<path class="st6" d="M22.2,53.7c-0.1-0.5-0.5-0.8-0.9-1.2c-0.5-0.4-1-0.8-1-1.5c0-1.8-1.1-2.5-2-3.2c-0.4-0.3-0.7-0.5-1-0.8
			c-1.1-1.1,0.1-3.4,0.2-3.5l0.2,0.1c0,0-1.2,2.2-0.2,3.2c0.3,0.3,0.6,0.5,0.9,0.8c1,0.7,2.1,1.5,2.1,3.4c0,0.5,0.4,0.9,0.9,1.3
			c0.4,0.4,0.9,0.8,1,1.4L22.2,53.7z"/>
	</g>
	<g>
		<path class="st10" d="M50.5,52.6l-0.2-0.1c0.3-0.7,1.2-0.8,2.1-0.8c1,0,1.9-0.1,2.3-0.8c0.3-0.8,0.2-1.2,0-1.7
			c-0.2-0.5-0.4-1-0.1-1.8c0.6-1.5,1.8-1.9,1.8-1.9l0.1,0.2c0,0-1.1,0.3-1.7,1.7c-0.3,0.7-0.1,1.1,0.1,1.6c0.2,0.5,0.4,1.1,0,1.9
			c-0.4,0.9-1.5,0.9-2.5,0.9C51.5,52,50.7,52,50.5,52.6z"/>
	</g>
	<g>
		<defs>
			<polygon id="SVGID_1_" points="39.9,11.3 25.4,16.5 25.4,24.6 33,22.2 33,46.2 42.2,46.2 42.2,11.3 			"/>
		</defs>
		<clipPath id="SVGID_2_">
			<use xlink:href="#SVGID_1_"  style="overflow:visible;"/>
		</clipPath>
		<path class="st12" d="M19.7,53.3c0,0-2.7-2.7,0.6-6.1c1.7-1.8,5-1.2,5-1.2s-0.7-4.1,2-6c3.5-2.5,5.2-1.5,5.2-1.5s0.8-1.3,1.3-1.9
			c0.7-0.8,1.1-1.2,0.1-3.1c0,0,6.6-0.5,7.6,4.6c1.5-0.2,3.7,0.2,5.3,1.8c1.3,1.3,1.8,2.8,1.8,4.5c0,0,3.7,0.4,6,3.4
			c2.4,3,1.3,5.5,1.3,5.5L19.7,53.3z"/>
	</g>
	<g>
		<path class="st2" d="M48.9,47.5l-0.2,0c0-0.5,0.6-1.2,1.2-2c0.6-0.7,1.2-1.3,1.4-1.9c0.3-0.8-0.3-2.6-0.7-4
			c-0.2-0.8-0.5-1.5-0.5-1.9c-0.2-1.4,1.9-3.1,2-3.2l0.2,0.2c0,0-2.1,1.7-1.9,2.9c0.1,0.4,0.3,1.1,0.5,1.9c0.5,1.5,1,3.2,0.7,4.1
			c-0.2,0.7-0.8,1.4-1.4,2C49.4,46.4,48.9,47,48.9,47.5z"/>
	</g>
	<g>
		<path class="st7" d="M47.2,46.3c-0.7-0.9,0-2.1,0.6-3.1c0.3-0.5,0.6-0.9,0.7-1.3c0.2-0.8,0.1-1,0.1-1l0-0.2c0.1,0,0.1,0,0.2,0.1
			c0.1,0.1,0.2,0.3-0.1,1.2c-0.1,0.4-0.4,0.9-0.7,1.4c-0.6,1-1.2,2-0.7,2.8L47.2,46.3z"/>
	</g>
	<g>
		<polygon class="st5" points="25.6,65.6 21,53 54.6,53 53.6,55.8 50.3,65.6 		"/>
		<polygon class="st13" points="25.6,53 28.3,65.6 27.1,53 		"/>
		<polygon class="st13" points="50.1,53 47.4,65.6 48.6,53 		"/>
		<polygon class="st13" points="44.3,53 42.5,65.6 42.8,53 		"/>
		<polygon class="st13" points="38.5,53 37.7,65.6 37,53 		"/>
		<polygon class="st13" points="31.2,53 33,65.6 32.7,53 		"/>
	</g>
	<linearGradient id="SVGID_3_" gradientUnits="userSpaceOnUse" x1="37.3877" y1="34.1481" x2="37.3877" y2="53.0325">
		<stop  offset="0" style="stop-color:#FFE094"/>
		<stop  offset="0.1897" style="stop-color:#FFDF9A"/>
		<stop  offset="0.4314" style="stop-color:#FFDDA9"/>
		<stop  offset="0.7012" style="stop-color:#FFD9C3"/>
		<stop  offset="0.9896" style="stop-color:#FFD4E8"/>
		<stop  offset="1" style="stop-color:#FFD4E9"/>
	</linearGradient>
	<path class="st14" d="M21,53c0,0-2.5-2.5,0.5-5.7c1.6-1.7,4.6-1.1,4.6-1.1s-0.7-3.8,1.9-5.6c3.2-2.3,4.8-1.4,4.8-1.4
		s0.7-1.2,1.2-1.8c0.6-0.7,1.3-1.5,0.4-3.3c0,0,5.8,0,6.8,4.7c1.4-0.2,3.4,0.2,4.9,1.7c1.2,1.2,1.7,2.6,1.7,4.2c0,0,3.4,0.4,5.6,3.1
		c2.2,2.8,1.2,5.1,1.2,5.1L21,53z"/>
	<g>
		<path class="st15" d="M31.8,45l-1.6-0.7c-0.3-0.1-0.4-0.5-0.3-0.7l0,0c0.1-0.3,0.5-0.4,0.7-0.3l1.6,0.7c0.3,0.1,0.4,0.5,0.3,0.7v0
			C32.4,45,32,45.1,31.8,45z"/>
		<path class="st15" d="M34.7,48.5L33,48.7c-0.3,0-0.6-0.2-0.6-0.5l0,0c0-0.3,0.2-0.6,0.5-0.6l1.7-0.1c0.3,0,0.6,0.2,0.6,0.5l0,0
			C35.3,48.2,35,48.5,34.7,48.5z"/>
		<path class="st15" d="M37.5,39.5l-1.1-1.3c-0.2-0.2-0.2-0.6,0.1-0.8l0,0c0.2-0.2,0.6-0.2,0.8,0.1l1.1,1.3c0.2,0.2,0.2,0.6-0.1,0.8
			l0,0C38,39.8,37.7,39.8,37.5,39.5z"/>
		<path class="st15" d="M25.5,49.9v-1.7c0-0.3,0.3-0.6,0.6-0.6h0c0.3,0,0.6,0.3,0.6,0.6v1.7c0,0.3-0.3,0.6-0.6,0.6h0
			C25.8,50.5,25.5,50.2,25.5,49.9z"/>
		<path class="st15" d="M42.4,41.6l1-1.4c0.2-0.3,0.5-0.3,0.8-0.2l0,0c0.3,0.2,0.3,0.5,0.2,0.8l-1,1.4c-0.2,0.3-0.5,0.3-0.8,0.2h0
			C42.3,42.2,42.2,41.9,42.4,41.6z"/>
		<path class="st15" d="M48.9,47.7l1.5,0.9c0.3,0.2,0.4,0.5,0.2,0.8h0c-0.2,0.3-0.5,0.4-0.8,0.2l-1.5-0.9c-0.3-0.2-0.4-0.5-0.2-0.8
			l0,0C48.3,47.7,48.6,47.6,48.9,47.7z"/>
	</g>
	<g>
		<g>
			<g>
				<path class="st7" d="M54.2,34.6c0,3.4-2.4,6.1-5.4,6.1c-0.2,0-0.3,0-0.5,0c-2.8-0.3-4.9-2.9-4.9-6.1c0-3.4,2.4-6.1,5.4-6.1
					C51.8,28.5,54.2,31.2,54.2,34.6z"/>
			</g>
			<path class="st7" d="M47.7,41.2c0,0,0.8-0.2,1.1,0c0.3,0.2,0-0.6,0-0.6L47.7,41.2z"/>
		</g>
	</g>
	<path class="st16" d="M47.7,44.7c0,0-1.7-0.5-4.4,0.7c-2.7,1.2-4.3,2-4.3,2s4.8-1.7,5-1.8c0.2-0.1,1.1-0.4,1.6-0.6
		c0.9-0.3,2.4-0.3,2.4-0.3L47.7,44.7z"/>
	<path class="st16" d="M26.1,46.2c0,0,1.3,0.2,2.4,0.8c1,0.5,2.1,1.6,2.1,1.6s-1.4-1.6-2.4-2.1c-1-0.5-2.1-0.6-2.1-0.6L26.1,46.2z"
		/>
	<path class="st16" d="M41.2,38.9c0,0,0.4,1.5-0.4,2.4c-0.8,1-3.8,1.8-3.8,1.8s2.6-0.5,3.4-1.1c0.7-0.4,1-1,1-2
		C41.4,39.1,41.2,38.9,41.2,38.9z"/>
	<path class="st16" d="M32.8,39.3c0,0,1.4,0.3,2,1.5c0,0,0.4-0.6-0.3-1.1C33.8,39.2,32.8,39.3,32.8,39.3z"/>
</g>
</svg>
