<?xml version="1.0" encoding="utf-8"?>
<!-- Generator: Adobe Illustrator 19.2.1, SVG Export Plug-In . SVG Version: 6.00 Build 0)  -->
<svg version="1.0" id="Layer_1" xmlns="http://www.w3.org/2000/svg" xmlns:xlink="http://www.w3.org/1999/xlink" x="0px" y="0px"
	 width="128px" height="128px" viewBox="0 0 128 128" style="enable-background:new 0 0 128 128;" xml:space="preserve">
<style type="text/css">
	.st0{fill:#FFFFFF;}
	.st1{fill:#248ADB;}
	.st2{fill:#6DD0F7;}
	.st3{fill:#FFB41F;}
	.st4{fill:#FC974C;}
	.st5{fill:#FC4380;}
	.st6{fill:#FFD400;}
	.st7{fill:#F42A86;}
	.st8{fill:#FF80AA;}
	.st9{fill:#FCD56B;}
	.st10{fill:#FC9F60;}
	.st11{fill:#115CD3;}
	.st12{clip-path:url(#SVGID_2_);fill:#0B61A8;}
	.st13{fill:#E0075A;}
	.st14{fill:url(#SVGID_3_);}
	.st15{fill:#9B5918;}
	.st16{fill:#E2A86D;}
</style>
<g>
	<g>
		<path class="st0" d="M64,127C29.3,127,1,98.7,1,64S29.3,1,64,1s63,28.3,63,63S98.7,127,64,127z"/>
		<path class="st1" d="M64,2c34.2,0,62,27.8,62,62s-27.8,62-62,62S2,98.2,2,64S29.8,2,64,2 M64,0C28.7,0,0,28.7,0,64s28.7,64,64,64
			s64-28.7,64-64S99.3,0,64,0L64,0z"/>
	</g>
	<path class="st2" d="M95.1,116.2H33.4c-0.3,0-0.6-0.3-0.6-0.6v-3.1c0-0.3,0.3-0.6,0.6-0.6h61.8c0.3,0,0.6,0.3,0.6,0.6v3.1
		C95.7,115.9,95.5,116.2,95.1,116.2z"/>
	<polygon class="st3" points="90.5,15.2 91.2,17.8 93.8,18.7 91.5,20.2 91.4,22.9 89.3,21.2 86.8,22 87.7,19.5 86.2,17.2 88.9,17.4 
			"/>
	<circle class="st4" cx="15.1" cy="81" r="2.4"/>
	<circle class="st5" cx="81.1" cy="27.7" r="1.4"/>
	<circle class="st5" cx="22" cy="53.3" r="1.4"/>
	<polygon class="st6" points="21.7,27.2 23.1,29.5 25.8,29.5 24.1,31.6 24.9,34.2 22.4,33.2 20.1,34.8 20.3,32.1 18.2,30.4 
		20.8,29.7 	"/>
	<polygon class="st3" points="29,33.8 30.1,35.6 32.2,35.6 30.9,37.2 31.5,39.2 29.5,38.5 27.8,39.6 28,37.6 26.3,36.3 28.3,35.8 	
		"/>
	<polygon class="st3" points="95.9,36.7 97,38.5 99.1,38.5 97.8,40.1 98.3,42.1 96.4,41.3 94.8,42.5 94.9,40.4 93.3,39.2 95.2,38.7 
			"/>
	<polygon class="st3" points="105.2,42.8 106,43.9 107.3,44 106.4,45 106.8,46.3 105.6,45.8 104.4,46.6 104.5,45.2 103.5,44.4 
		104.8,44.1 	"/>
	<circle class="st2" cx="12.6" cy="55.2" r="1.8"/>
	<circle class="st2" cx="105.4" cy="31" r="1.8"/>
	<circle class="st7" cx="112.2" cy="44.7" r="1.8"/>
	<circle class="st7" cx="37.8" cy="25.3" r="1.8"/>
	<circle class="st8" cx="78.7" cy="19.1" r="2.4"/>
	<circle class="st2" cx="44.1" cy="18.1" r="2.4"/>
	<g>
		<g>
			
				<ellipse transform="matrix(0.9997 -2.467638e-002 2.467638e-002 0.9997 -1.3598 1.0271)" class="st8" cx="40.9" cy="55.6" rx="9.8" ry="13.2"/>
			<path class="st8" d="M41.3,68.8l-1.1,1.1c0,0,1.5-0.1,2.1,0.4C42.8,70.8,41.3,68.8,41.3,68.8z"/>
		</g>
	</g>
	<g>
		<g>
			<g>
				<ellipse transform="matrix(0.9659 -0.2589 0.2589 0.9659 -16.016 9.3885)" class="st9" cx="27.6" cy="65.5" rx="8.1" ry="9.3"/>
			</g>
			<g>
				<path class="st9" d="M30.1,74.5c0,0-1.4,2.5-0.5,1.4c0.6-0.7,1.6-0.5,1.6-0.5L30.1,74.5z"/>
			</g>
		</g>
	</g>
	<g>
		<g>
			
				<ellipse transform="matrix(0.4023 -0.9155 0.9155 0.4023 -0.4751 130.7101)" class="st10" cx="99.9" cy="65.7" rx="12.7" ry="11.2"/>
			<path class="st10" d="M96.3,79.4c2.7,1.2,0-1.5,0-1.5S93.7,78.3,96.3,79.4z"/>
		</g>
	</g>
	<polygon class="st11" points="68,19.3 43.4,28.1 43.4,41.9 56.3,37.9 56.3,78.8 72.1,78.8 72.1,19.3 	"/>
	<g>
		<path class="st8" d="M42.6,93.3c-1.6-2.3-1-4-0.4-5.7c0.3-0.8,0.5-1.5,0.6-2.4c0.1-1.2-0.3-2-0.9-2.8c-0.7-1-1.4-2.2-1.2-4.3
			c0.2-2.2,1-2.8,1.8-3.4c0.6-0.5,1.2-1,1.4-2.4c0.1-0.9,0-1.6-0.5-2.1c-0.8-1-2.2-1-2.3-1l0-0.4c0.1,0,1.6,0.1,2.6,1.2
			c0.5,0.6,0.7,1.4,0.6,2.4c-0.2,1.6-0.9,2.1-1.6,2.6C42,75.4,41.3,76,41.2,78c-0.2,2,0.5,3.1,1.2,4.1c0.6,0.9,1.1,1.7,1,3.1
			c-0.1,0.9-0.4,1.7-0.7,2.5C42,89.4,41.5,90.9,43,93L42.6,93.3z"/>
	</g>
	<g>
		
			<ellipse transform="matrix(5.231151e-002 -0.9986 0.9986 5.231151e-002 40.7011 131.9839)" class="st2" cx="89.9" cy="44.5" rx="14.6" ry="10.3"/>
		<path class="st2" d="M88.7,60.8c0,0,1.5-0.3,2.4,0.5c0.4,0.3-1.3-2.2-1.3-2.2L88.7,60.8z"/>
	</g>
	<g>
		<path class="st6" d="M37.8,91.7c-0.1-0.8-0.8-1.4-1.5-2.1c-0.8-0.7-1.6-1.4-1.7-2.5c-0.1-3-1.8-4.3-3.5-5.5
			c-0.6-0.4-1.2-0.8-1.7-1.3c-1.9-1.9,0.2-5.9,0.3-6l0.4,0.2c0,0-2.1,3.8-0.4,5.5c0.5,0.5,1,0.9,1.6,1.3c1.7,1.2,3.6,2.6,3.6,5.8
			c0,0.9,0.7,1.5,1.5,2.2c0.7,0.7,1.5,1.3,1.6,2.3L37.8,91.7z"/>
	</g>
	<g>
		<path class="st10" d="M86.2,89.7l-0.4-0.1c0.4-1.3,2-1.3,3.6-1.3c1.6,0,3.3-0.1,3.9-1.4c0.6-1.3,0.3-2.1-0.1-3
			c-0.3-0.8-0.7-1.7-0.1-3c1.1-2.6,3.1-3.2,3.1-3.2l0.1,0.4c0,0-1.9,0.6-2.9,3c-0.5,1.1-0.2,1.9,0.1,2.7c0.4,0.9,0.7,1.8,0.1,3.3
			c-0.7,1.5-2.6,1.6-4.3,1.6C87.9,88.7,86.5,88.7,86.2,89.7z"/>
	</g>
	<g>
		<defs>
			<polygon id="SVGID_1_" points="68,19.3 43.4,28.1 43.4,41.9 56.3,37.9 56.3,78.8 72.1,78.8 72.1,19.3 			"/>
		</defs>
		<clipPath id="SVGID_2_">
			<use xlink:href="#SVGID_1_"  style="overflow:visible;"/>
		</clipPath>
		<path class="st12" d="M33.7,90.9c0,0-4.6-4.6,1-10.5c2.9-3.1,8.5-2,8.5-2s-1.2-7,3.5-10.3c5.9-4.2,8.9-2.5,8.9-2.5
			s1.3-2.2,2.2-3.3c1.2-1.4,1.8-2,0.2-5.3c0,0,11.3-0.8,12.9,7.9c2.5-0.3,6.3,0.3,9,3.1c2.2,2.2,3.1,4.8,3,7.8c0,0,6.2,0.7,10.3,5.8
			c4,5.1,2.3,9.4,2.3,9.4L33.7,90.9z"/>
	</g>
	<g>
		<path class="st2" d="M83.4,81L83,81c0-0.9,1-2.1,2.1-3.3c1-1.1,2-2.3,2.3-3.3c0.5-1.4-0.5-4.4-1.2-6.8c-0.4-1.3-0.8-2.5-0.9-3.3
			c-0.3-2.4,3.2-5.3,3.4-5.4l0.3,0.3c0,0-3.5,2.9-3.2,5c0.1,0.8,0.5,2,0.9,3.2c0.8,2.6,1.7,5.5,1.2,7c-0.4,1.1-1.4,2.3-2.4,3.5
			C84.4,79.1,83.4,80.2,83.4,81z"/>
	</g>
	<g>
		<path class="st7" d="M80.6,78.9c-1.1-1.6,0-3.5,1.1-5.2c0.5-0.8,1-1.6,1.1-2.2c0.4-1.4,0.2-1.7,0.2-1.7L83,69.4
			c0.1,0,0.2,0,0.4,0.1c0.2,0.2,0.3,0.6-0.1,2.1c-0.2,0.7-0.7,1.5-1.2,2.3c-1,1.7-2.1,3.4-1.1,4.8L80.6,78.9z"/>
	</g>
	<g>
		<polygon class="st5" points="43.8,111.9 35.8,90.5 93.1,90.5 91.5,95.3 85.8,111.9 		"/>
		<polygon class="st13" points="43.7,90.5 48.4,111.9 46.2,90.5 		"/>
		<polygon class="st13" points="85.5,90.5 80.9,111.9 83,90.5 		"/>
		<polygon class="st13" points="75.6,90.5 72.6,111.9 73.1,90.5 		"/>
		<polygon class="st13" points="65.7,90.5 64.3,111.9 63.2,90.5 		"/>
		<polygon class="st13" points="53.3,90.5 56.3,111.9 55.8,90.5 		"/>
	</g>
	<linearGradient id="SVGID_3_" gradientUnits="userSpaceOnUse" x1="63.8084" y1="58.2793" x2="63.8084" y2="90.5088">
		<stop  offset="0" style="stop-color:#FFE094"/>
		<stop  offset="0.1897" style="stop-color:#FFDF9A"/>
		<stop  offset="0.4314" style="stop-color:#FFDDA9"/>
		<stop  offset="0.7012" style="stop-color:#FFD9C3"/>
		<stop  offset="0.9896" style="stop-color:#FFD4E8"/>
		<stop  offset="1" style="stop-color:#FFD4E9"/>
	</linearGradient>
	<path class="st14" d="M35.8,90.5c0,0-4.2-4.3,0.9-9.7c2.7-2.9,7.9-1.9,7.9-1.9s-1.1-6.5,3.2-9.6C53.2,65.4,56,67,56,67
		s1.2-2.1,2.1-3c1.1-1.3,2.2-2.6,0.7-5.7c0,0,10,0,11.5,8c2.4-0.3,5.9,0.3,8.4,2.8c2,2,2.9,4.4,2.8,7.2c0,0,5.8,0.6,9.5,5.4
		c3.7,4.8,2.1,8.8,2.1,8.8L35.8,90.5z"/>
	<g>
		<path class="st15" d="M54.2,76.8l-2.7-1.2c-0.5-0.2-0.7-0.8-0.5-1.3v0c0.2-0.5,0.8-0.7,1.3-0.5L55,75c0.5,0.2,0.7,0.8,0.5,1.3l0,0
			C55.3,76.7,54.7,77,54.2,76.8z"/>
		<path class="st15" d="M59.3,82.8L56.4,83c-0.5,0-1-0.4-1-0.9v0c0-0.5,0.4-1,0.9-1l2.9-0.2c0.5,0,1,0.4,1,0.9v0
			C60.2,82.3,59.8,82.8,59.3,82.8z"/>
		<path class="st15" d="M63.9,67.5l-1.8-2.2c-0.3-0.4-0.3-1,0.1-1.4v0c0.4-0.3,1-0.3,1.4,0.1l1.8,2.2c0.3,0.4,0.3,1-0.1,1.4l0,0
			C64.9,67.9,64.3,67.9,63.9,67.5z"/>
		<path class="st15" d="M43.5,85.2v-2.9c0-0.5,0.4-1,1-1h0c0.5,0,1,0.4,1,1v2.9c0,0.5-0.4,1-1,1h0C44,86.2,43.5,85.8,43.5,85.2z"/>
		<path class="st15" d="M72.3,71l1.6-2.4c0.3-0.4,0.9-0.6,1.3-0.3l0,0c0.4,0.3,0.6,0.9,0.3,1.3l-1.6,2.4c-0.3,0.4-0.9,0.6-1.3,0.3
			l0,0C72.1,72.1,72,71.5,72.3,71z"/>
		<path class="st15" d="M83.5,81.5l2.5,1.5c0.5,0.3,0.6,0.9,0.4,1.3l0,0c-0.3,0.5-0.9,0.6-1.3,0.4l-2.5-1.5
			c-0.5-0.3-0.6-0.9-0.4-1.3v0C82.4,81.4,83,81.2,83.5,81.5z"/>
	</g>
	<g>
		<g>
			<g>
				<path class="st7" d="M92.5,59c0,5.7-4.2,10.4-9.3,10.4c-0.3,0-0.6,0-0.9,0c-4.7-0.5-8.4-4.9-8.4-10.3c0-5.7,4.2-10.4,9.3-10.4
					C88.3,48.7,92.5,53.3,92.5,59z"/>
			</g>
			<path class="st7" d="M81.3,70.4c0,0,1.4-0.4,1.8,0c0.5,0.4,0-1,0-1L81.3,70.4z"/>
		</g>
	</g>
	<path class="st16" d="M81.5,76.4c0,0-3-0.8-7.6,1.2c-4.6,2-7.3,3.4-7.3,3.4s8.1-3,8.5-3.1c0.3-0.1,1.8-0.7,2.7-1
		c1.5-0.6,4.1-0.5,4.1-0.5L81.5,76.4z"/>
	<path class="st16" d="M44.5,78.9c0,0,2.2,0.3,4,1.4c1.6,0.9,3.6,2.8,3.6,2.8s-2.5-2.7-4.1-3.5c-1.7-0.8-3.6-1-3.6-1L44.5,78.9z"/>
	<path class="st16" d="M70.3,66.3c0,0,0.7,2.5-0.6,4.1c-1.3,1.6-6.5,3.1-6.5,3.1s4.4-0.9,5.9-1.8c1.2-0.7,1.8-1.8,1.7-3.4
		C70.6,66.8,70.3,66.3,70.3,66.3z"/>
	<path class="st16" d="M56,67c0,0,2.5,0.6,3.4,2.6c0,0,0.7-1-0.5-1.9S56,67,56,67z"/>
</g>
</svg>
