<?xml version="1.0" encoding="utf-8"?>
<!-- Generator: Adobe Illustrator 19.2.1, SVG Export Plug-In . SVG Version: 6.00 Build 0)  -->
<svg version="1.0" id="Layer_1" xmlns="http://www.w3.org/2000/svg" xmlns:xlink="http://www.w3.org/1999/xlink" x="0px" y="0px"
	 width="75px" height="75px" viewBox="0 0 75 75" style="enable-background:new 0 0 75 75;" xml:space="preserve">
<style type="text/css">
	.st0{fill:#FFFFFF;}
	.st1{fill:#CD6925;}
	.st2{fill:#115CD3;}
	.st3{fill:#6DD0F7;}
	.st4{fill:#FFA81E;}
	.st5{fill:#BA5F1A;}
	.st6{fill:#FC4380;}
	.st7{fill:#BBE5F2;}
	.st8{fill:#FFD400;}
	.st9{fill:#9B5918;}
	.st10{fill:#FFB41F;}
	.st11{fill:#64F9AB;}
	.st12{fill:#1C74D3;}
</style>
<g>
	<g>
		<path class="st0" d="M37.5,73.5c-19.9,0-36-16.1-36-36s16.1-36,36-36s36,16.1,36,36S57.4,73.5,37.5,73.5z"/>
		<path class="st1" d="M37.5,3C56.5,3,72,18.5,72,37.5S56.5,72,37.5,72S3,56.5,3,37.5S18.5,3,37.5,3 M37.5,0C16.8,0,0,16.8,0,37.5
			S16.8,75,37.5,75S75,58.2,75,37.5S58.2,0,37.5,0L37.5,0z"/>
	</g>
</g>
<g>
	<polygon class="st2" points="39.6,9.3 25.1,14.5 25.1,22.6 32.7,20.2 32.7,44.2 42,44.2 42,9.3 	"/>
	<path class="st3" d="M35.5,44.2v-8.5c0-1.1,0.9-2,2-2h0.2c1.1,0,2,0.9,2,2v8.5H35.5z"/>
	<polygon class="st4" points="25.4,63.6 20.7,51 54.3,51 53.3,53.8 50,63.6 	"/>
	<path class="st5" d="M53.9,50.4c0-2.6-2.1-4.7-4.7-4.7l-23.9,0.1c-2.6,0-4.7,2.4-4.7,5l0.6,1.7c0,0,0.9,2.2,3.1,1.6
		c1.9-0.4,1.5-2.9,3.4-2.9c1.7,0,1.8,2.5,3.9,2.5c1.8,0,2.1-2.4,3.3-2.5c1.2-0.1,1.2,1.9,2.5,1.9c1.3,0,0.9-1.9,2.5-1.9
		c2.3,0,2.4,3.1,5.5,3.1c3,0,3.4-3.4,4.9-3.4c1.7,0,1,2.8,2.9,2.8c0,0,0.4-0.9,0.6-1.7C54.1,51.4,53.9,50.4,53.9,50.4z"/>
	<path class="st6" d="M54.6,48.6c0-2.7-2.5-4.6-5-4.6l-24.4,0c-2.6,0-4.9,2.1-4.9,4.7c0,0,0,1.1,0.4,2.2c0.2,0.6,0.1,1.6,2.4,1.6
		s2.9-1.8,4.8-1.8c1.7,0,1.7,2,3.8,2c1.8,0,2.4-1.9,3.6-1.9c1.2-0.1,1,0.8,2.3,0.8c1.3,0,1-0.9,2.5-1c2.3,0,2.4,2.1,5.4,2.1
		c3,0,3.2-2,4.7-2c1.7,0,1.7,1.6,3.7,1.5C53.9,52.1,54.6,50.8,54.6,48.6z"/>
	<path class="st7" d="M54.9,66.1h-35c-0.2,0-0.4-0.2-0.4-0.4v-1.8c0-0.2,0.2-0.4,0.4-0.4h35c0.2,0,0.4,0.2,0.4,0.4v1.8
		C55.2,65.9,55.1,66.1,54.9,66.1z"/>
	<path class="st8" d="M37.5,22.6c0,0-3.4,3.2-3.4,6.3c0,2.9,3.4,3.3,3.4,3.3s3.4-0.4,3.4-3.3C40.9,25.8,37.5,22.6,37.5,22.6z"/>
	<g>
		<path class="st9" d="M23.5,48.2L22,47.5c-0.3-0.1-0.4-0.5-0.3-0.7h0c0.1-0.3,0.5-0.4,0.7-0.3l1.6,0.7c0.3,0.1,0.4,0.5,0.3,0.7l0,0
			C24.1,48.2,23.8,48.3,23.5,48.2z"/>
		<path class="st9" d="M38.7,47.4L37,47.5c-0.3,0-0.6-0.2-0.6-0.5v0c0-0.3,0.2-0.6,0.5-0.6l1.7-0.1c0.3,0,0.6,0.2,0.6,0.5v0
			C39.3,47.1,39,47.4,38.7,47.4z"/>
		<path class="st9" d="M42.9,49.5L42.1,48c-0.1-0.3,0-0.6,0.3-0.8h0c0.3-0.1,0.6,0,0.8,0.3l0.8,1.5c0.1,0.3,0,0.6-0.3,0.8l0,0
			C43.3,49.9,43,49.8,42.9,49.5z"/>
		<path class="st9" d="M29.8,49.6v-1.7c0-0.3,0.3-0.6,0.6-0.6h0c0.3,0,0.6,0.3,0.6,0.6v1.7c0,0.3-0.3,0.6-0.6,0.6h0
			C30,50.2,29.8,49.9,29.8,49.6z"/>
		<path class="st9" d="M46.5,47.5l1-1.4c0.2-0.3,0.5-0.3,0.8-0.2v0c0.3,0.2,0.3,0.5,0.2,0.8l-1,1.4c-0.2,0.3-0.5,0.3-0.8,0.2h0
			C46.4,48.1,46.3,47.8,46.5,47.5z"/>
		<path class="st9" d="M51.3,48.9l1.7-0.1c0.3,0,0.6,0.2,0.6,0.5v0c0,0.3-0.2,0.6-0.5,0.6L51.4,50c-0.3,0-0.6-0.2-0.6-0.5v0
			C50.8,49.2,51,48.9,51.3,48.9z"/>
	</g>
	<polygon class="st10" points="26.3,34 26.8,35.5 28.3,36 26.9,36.9 26.9,38.5 25.7,37.5 24.2,37.9 24.7,36.5 23.8,35.2 25.4,35.2 	
		"/>
	<g>
		<path class="st3" d="M14.4,39.7c-0.6,0.2-1.3,0.3-2.1,0c-1-0.4-1.4-1.2-1.6-1.7c-0.2-0.4-0.3-0.7-0.6-0.9
			c-0.8-0.5-1.5-0.1-1.5-0.1c-0.4,0.3-0.9,0.2-1.1-0.2s-0.2-0.9,0.2-1.1c0.6-0.4,1.9-0.9,3.3,0c0.7,0.5,1,1.1,1.2,1.6
			c0.2,0.5,0.3,0.7,0.7,0.9c0.7,0.3,1.3-0.3,1.4-0.3c0.2-0.3,2.4-2.4,4.6-1.5c0.4,0.2,0.6,0.7,0.4,1.1c-0.2,0.4-0.7,0.6-1.1,0.4
			c-1.2-0.5-2.8,1.1-2.8,1.1l0,0C15.2,39.3,14.9,39.6,14.4,39.7z"/>
	</g>
	<g>
		<path class="st6" d="M22.4,27.8c-0.4,0.1-0.8,0-0.9-0.4c-0.6-1.2-2.9-0.8-2.9-0.8l0,0c-0.7,0.1-2.1-0.1-2.9-1.3
			c-0.6-0.9-0.4-1.8-0.3-2.4c0.1-0.5,0.2-0.7,0-1.1C15,21,14.2,21,14.2,21c-0.5,0-0.8-0.4-0.8-0.8c0-0.5,0.4-0.8,0.8-0.8
			c0.7,0,2.1,0.4,2.7,2c0.3,0.8,0.2,1.5,0,2c-0.1,0.5-0.2,0.8,0.1,1.1c0.4,0.6,1.2,0.6,1.3,0.6c0.3-0.1,3.4-0.5,4.6,1.6
			c0.2,0.4,0.1,0.9-0.3,1.1C22.5,27.8,22.4,27.8,22.4,27.8z"/>
	</g>
	<circle class="st11" cx="19.4" cy="31.3" r="1.3"/>
	<circle class="st12" cx="54" cy="39" r="0.9"/>
	<circle class="st3" cx="61.9" cy="39.9" r="1.4"/>
	<circle class="st6" cx="25.8" cy="30.4" r="0.9"/>
	<polygon class="st8" points="51.6,28.6 52.4,29.9 54,30 53,31.2 53.4,32.7 52,32.2 50.7,33.1 50.7,31.5 49.5,30.5 51,30.1 	"/>
	<polygon class="st10" points="55.4,23 56.1,24 57.3,24.1 56.5,25 56.8,26.1 55.7,25.7 54.7,26.4 54.8,25.2 53.9,24.4 55,24.1 	"/>
	<g>
		<path class="st11" d="M57.9,36.1c0,0-0.1,0-0.1,0c-0.4-0.2-0.6-0.7-0.4-1.1c0.3-0.7,1.3-1.7,2.9-1.6c0.9,0.1,1.4,0.5,1.8,0.8
			c0.4,0.3,0.6,0.5,1,0.4c0.7-0.1,1-0.8,1-0.9c0.1-0.3,1-3.3,3.4-3.5c0.5,0,0.8,0.3,0.9,0.8c0,0.5-0.3,0.8-0.8,0.9
			c-1.3,0.1-1.9,2.3-1.9,2.3l0,0c-0.2,0.7-0.9,1.9-2.4,2.1c-1.1,0.2-1.8-0.4-2.3-0.7c-0.4-0.3-0.6-0.4-0.9-0.5
			c-1-0.1-1.3,0.6-1.3,0.7C58.7,36,58.3,36.2,57.9,36.1z"/>
	</g>
	<circle class="st11" cx="46" cy="26.3" r="1"/>
	<circle class="st6" cx="7.3" cy="40.9" r="1.3"/>
	<circle class="st6" cx="47.1" cy="20.6" r="1.3"/>
	<path class="st4" d="M37.5,32.1c0,0-3.4-0.4-3.4-3.3c0-3.1,3.4-6.3,3.4-6.3V32.1z"/>
</g>
</svg>
