<?xml version="1.0" encoding="utf-8"?>
<!-- Generator: Adobe Illustrator 19.2.1, SVG Export Plug-In . SVG Version: 6.00 Build 0)  -->
<svg version="1.0" id="Layer_1" xmlns="http://www.w3.org/2000/svg" xmlns:xlink="http://www.w3.org/1999/xlink" x="0px" y="0px"
	 width="128px" height="128px" viewBox="0 0 128 128" style="enable-background:new 0 0 128 128;" xml:space="preserve">
<style type="text/css">
	.st0{fill:#FFFCDC;}
	.st1{fill:#248ADB;}
	.st2{fill:#FFE499;}
	.st3{fill:#FFB41F;}
	.st4{fill:#FC4380;}
	.st5{fill:#FFD400;}
	.st6{fill:#6B1C99;}
	.st7{fill:#64F9AB;}
	.st8{fill:#FF793E;}
	.st9{fill:#B7ACF9;}
	.st10{fill:#FCCA65;}
	.st11{fill:#FC2929;}
	.st12{fill:#9339D3;}
	.st13{fill:#D2E5FC;}
	.st14{fill:#1C74D3;}
	.st15{fill:#FF911A;}
	.st16{fill:#8273D8;}
	.st17{fill:#7B6DC6;}
	.st18{fill:#F7F2C1;}
	.st19{fill:#FCF1BB;}
	.st20{fill:#FFFAE6;}
	.st21{fill:url(#SVGID_1_);}
	.st22{fill:url(#SVGID_2_);}
</style>
<g>
	<g>
		<path class="st0" d="M64,127C29.3,127,1,98.7,1,64S29.3,1,64,1s63,28.3,63,63S98.7,127,64,127z"/>
		<path class="st1" d="M64,2c34.2,0,62,27.8,62,62s-27.8,62-62,62S2,98.2,2,64S29.8,2,64,2 M64,0C28.7,0,0,28.7,0,64s28.7,64,64,64
			s64-28.7,64-64S99.3,0,64,0L64,0z"/>
	</g>
	<circle class="st2" cx="106.5" cy="62" r="5.3"/>
	<polygon class="st3" points="101.7,95.8 102.3,98.3 104.8,99.1 102.6,100.6 102.6,103.2 100.5,101.5 98,102.3 99,99.9 97.5,97.7 
		100.1,97.8 	"/>
	<circle class="st4" cx="43.6" cy="53.2" r="1.6"/>
	<polygon class="st5" points="24,24 25.4,26.2 28,26.3 26.4,28.3 27.1,30.8 24.7,29.8 22.5,31.3 22.6,28.7 20.6,27.1 23.1,26.4 	"/>
	<circle class="st6" cx="87.4" cy="37.4" r="7.1"/>
	<polygon class="st3" points="19.9,34.6 20.9,36.3 22.9,36.3 21.7,37.9 22.2,39.8 20.4,39 18.7,40.2 18.9,38.2 17.3,37 19.2,36.5 	
		"/>
	<circle class="st7" cx="79.6" cy="46" r="1.8"/>
	<circle class="st8" cx="100.6" cy="44.9" r="11.4"/>
	<circle class="st8" cx="55.8" cy="93" r="11.4"/>
	<circle class="st9" cx="36.6" cy="42.8" r="11.4"/>
	<circle class="st6" cx="55" cy="29.1" r="11.4"/>
	<circle class="st10" cx="86.8" cy="88.5" r="11.4"/>
	<circle class="st3" cx="34.9" cy="84.6" r="11.4"/>
	<circle class="st3" cx="63.8" cy="36.6" r="11.4"/>
	<circle class="st6" cx="28.1" cy="97.3" r="5.5"/>
	<circle class="st11" cx="76" cy="40.3" r="8.7"/>
	<ellipse transform="matrix(0.7071 -0.7071 0.7071 0.7071 -38.9838 77.7983)" class="st9" cx="74.4" cy="86" rx="9.5" ry="9.5"/>
	<circle class="st12" cx="117.5" cy="66.2" r="2.2"/>
	<circle class="st6" cx="61.2" cy="87.6" r="7.1"/>
	<circle class="st11" cx="17.3" cy="62.5" r="11.4"/>
	<circle class="st11" cx="102.5" cy="83.6" r="11.4"/>
	<circle class="st13" cx="71.4" cy="31.6" r="3.1"/>
	<circle class="st7" cx="101.4" cy="81" r="2.4"/>
	<circle class="st14" cx="107.9" cy="83.4" r="1.7"/>
	<circle class="st12" cx="6.4" cy="72.7" r="1.7"/>
	<circle class="st9" cx="19.2" cy="43.4" r="1.6"/>
	<circle class="st2" cx="42.2" cy="95.9" r="1.7"/>
	<circle class="st12" cx="87.5" cy="90" r="1.7"/>
	<circle class="st3" cx="117.9" cy="69.2" r="1.7"/>
	<circle class="st15" cx="29.5" cy="53.2" r="7.1"/>
	<circle class="st12" cx="68.8" cy="97.3" r="7.1"/>
	<circle class="st12" cx="48.8" cy="35.7" r="7.1"/>
	<circle class="st3" cx="60.2" cy="92.7" r="3.1"/>
	<circle class="st13" cx="24.8" cy="43.6" r="3.1"/>
	<circle class="st2" cx="64.6" cy="37.4" r="6"/>
	<circle class="st16" cx="45.8" cy="90" r="5.4"/>
	<circle class="st6" cx="26.9" cy="69.2" r="7.1"/>
	<circle class="st13" cx="70.4" cy="39.6" r="2.5"/>
	<circle class="st9" cx="97" cy="57.3" r="7.1"/>
	<circle class="st13" cx="106.2" cy="55.2" r="3.1"/>
	<circle class="st6" cx="98.9" cy="70.2" r="7.1"/>
	<circle class="st17" cx="34.1" cy="62.5" r="5.3"/>
	<ellipse transform="matrix(0.618 -0.7861 0.7861 0.618 -30.3403 105.9066)" class="st17" cx="93.8" cy="84.2" rx="5.3" ry="5.3"/>
	<circle class="st13" cx="106.2" cy="70.7" r="3.3"/>
	<circle class="st9" cx="61.2" cy="41.1" r="5.4"/>
	<circle class="st13" cx="25.8" cy="71.9" r="3.1"/>
	<circle class="st13" cx="29" cy="58.6" r="3.4"/>
	<circle class="st13" cx="64.9" cy="92.2" r="3.7"/>
	<circle class="st18" cx="55.8" cy="37.1" r="2.5"/>
	<circle class="st19" cx="53.6" cy="86.9" r="3.1"/>
	<circle class="st2" cx="21" cy="73.2" r="3.1"/>
	<circle class="st19" cx="99.5" cy="49" r="3.1"/>
	<ellipse transform="matrix(0.866 -0.5 0.5 0.866 -13.9669 26.0451)" class="st19" cx="41.6" cy="39.1" rx="3.1" ry="3.1"/>
	<circle class="st19" cx="93.8" cy="87.7" r="3.1"/>
	<circle class="st12" cx="107.9" cy="57.3" r="1.7"/>
	<circle class="st12" cx="102.5" cy="63.4" r="3.1"/>
	<circle class="st2" cx="72.9" cy="97.7" r="1.7"/>
	<circle class="st12" cx="27.2" cy="53.6" r="1.7"/>
	<circle class="st12" cx="42.4" cy="40.5" r="1.7"/>
	<circle class="st3" cx="14.1" cy="74" r="1.7"/>
	<circle class="st3" cx="35.8" cy="31.3" r="1.7"/>
	<circle class="st11" cx="121.9" cy="63.4" r="1.7"/>
	<circle class="st12" cx="85.9" cy="27.1" r="1.7"/>
	<circle class="st3" cx="26.1" cy="63.2" r="3.1"/>
	<circle class="st12" cx="82.2" cy="37.4" r="1.7"/>
	<circle class="st14" cx="26.1" cy="81.7" r="1.7"/>
	<circle class="st11" cx="94.5" cy="97.8" r="1.7"/>
	<circle class="st2" cx="108.6" cy="47.8" r="1.7"/>
	<circle class="st11" cx="21.7" cy="46" r="1.6"/>
	<circle class="st11" cx="51.9" cy="33" r="1.7"/>
	<circle class="st11" cx="41.6" cy="87.9" r="1.7"/>
	<circle class="st11" cx="100.2" cy="52.8" r="1.7"/>
	<ellipse transform="matrix(0.3291 -0.9443 0.9443 0.3291 2.8383 161.1771)" class="st9" cx="114.8" cy="78.6" rx="4.5" ry="4.5"/>
	<circle class="st13" cx="90.8" cy="55.9" r="3.1"/>
	<circle class="st9" cx="38.7" cy="67.4" r="3.1"/>
	<circle class="st13" cx="48.8" cy="40.3" r="3.1"/>
	<circle class="st2" cx="43.2" cy="62.1" r="5.6"/>
	<circle class="st2" cx="98.9" cy="62" r="3.1"/>
	<path class="st20" d="M94.2,59.7c-1.6-1.7-2.8-2.3-5.2-3.4l0.2-1.9l6.8,0L96.1,41l-31.4-0.1l-0.5,4.7c-2.6-2.3-7.6-5.6-13.1-5.5
		c0,0-0.5,0-1.4,0c-3,0.1-6.2,0.8-8.6,2c-2.4,1.3-5.4,4-6.8,6.2c-1.3,2.2-2,4.7-2,7.3l0,4.6l15.1,0c0,0-0.9,1-1.8,1.9L32.6,75.4
		l0,10.9l35.8,0.1l0-2.4c0.5,0.4,1,0.8,1.5,1.2c3.2,2.1,7.6,2.3,10.1,2.4c1.2,0,3.5-0.3,4.8-0.6c1.6-0.4,3.7-1.2,5.3-2.4
		c2.1-1.4,4.6-3.6,5.9-6.4c0.8-1.8,1.9-4.8,1.9-7.6C98,66,96.7,62.3,94.2,59.7z"/>
	<g>
		<linearGradient id="SVGID_1_" gradientUnits="userSpaceOnUse" x1="49.5623" y1="43.7588" x2="49.5623" y2="82.5557">
			<stop  offset="0" style="stop-color:#FFA83F"/>
			<stop  offset="0.1199" style="stop-color:#F69F44"/>
			<stop  offset="0.3137" style="stop-color:#DF8752"/>
			<stop  offset="0.5573" style="stop-color:#B9606A"/>
			<stop  offset="0.8382" style="stop-color:#852B8A"/>
			<stop  offset="1" style="stop-color:#64099E"/>
		</linearGradient>
		<path class="st21" d="M55.7,67.7c2.3-2.5,4-4.8,5-6.7c1-2,1.5-4,1.5-5.9c0-3.5-1.1-6.4-3.4-8.3c-2.2-1.9-5.4-2.9-9.3-2.9
			c0,0,0,0,0,0c-2.6,0-4.9,0.6-7,1.7c-2.1,1.1-3.7,2.7-4.9,4.7c-1.1,2-1.7,4.2-1.7,6.5l0,0.9l9.1,0l0-0.9c0-1.6,0.4-2.9,1.2-3.9
			c0.8-0.9,1.8-1.4,3.2-1.4c0,0,0,0,0,0c1.3,0,2.2,0.4,2.8,1.1c0.7,0.8,1,1.8,1,3.2c0,1-0.4,2.1-1,3.3c-0.7,1.3-1.9,2.8-3.5,4.5
			L36.5,76.3l0,6.2l26.8,0l0-7.7l-14.4,0L55.7,67.7z"/>
		<linearGradient id="SVGID_2_" gradientUnits="userSpaceOnUse" x1="79.296" y1="44.2928" x2="79.296" y2="83.0835">
			<stop  offset="0" style="stop-color:#FFA83F"/>
			<stop  offset="0.1199" style="stop-color:#F69F44"/>
			<stop  offset="0.3137" style="stop-color:#DF8752"/>
			<stop  offset="0.5573" style="stop-color:#B9606A"/>
			<stop  offset="0.8382" style="stop-color:#852B8A"/>
			<stop  offset="1" style="stop-color:#64099E"/>
		</linearGradient>
		<path class="st22" d="M89.4,60.3c-2.1-2.3-5.1-3.5-8.8-3.5c-1.6,0-3,0.3-4.4,0.8l0.6-5.4l14.6,0l0-7.9l-22.2,0l-2.3,20.1l7,1.8
			l1-1c0.9-0.8,2.1-1.1,3.6-1.1c0,0,0,0,0,0c1.6,0,2.8,0.4,3.7,1.4c0.8,0.9,1.3,2.3,1.3,4.1c0,1.9-0.4,3.4-1.2,4.4
			c-0.7,0.9-1.7,1.4-3,1.4c0,0,0,0,0,0c-1.2,0-2.2-0.3-2.9-1c-0.7-0.7-1.2-1.7-1.3-3L75,70.6l-8.9,0l0,0.9c0.1,2.2,0.7,4.3,1.9,6
			c1.2,1.8,2.8,3.1,4.8,4.1c2,1,4.2,1.4,6.5,1.4c0,0,0,0,0,0c2.7,0,5-0.6,7-1.6c2-1.1,3.6-2.7,4.6-4.7c1.1-2,1.6-4.3,1.6-6.7
			C92.6,65.9,91.5,62.7,89.4,60.3z"/>
	</g>
	<circle class="st11" cx="35.6" cy="67.4" r="1.7"/>
	<circle class="st12" cx="26.1" cy="60.3" r="1.7"/>
	<circle class="st17" cx="117.9" cy="81.5" r="2.1"/>
	<circle class="st3" cx="115.8" cy="43.6" r="1.7"/>
</g>
</svg>
