<?xml version="1.0" encoding="utf-8"?>
<!-- Generator: Adobe Illustrator 19.2.1, SVG Export Plug-In . SVG Version: 6.00 Build 0)  -->
<svg version="1.0" id="Layer_1" xmlns="http://www.w3.org/2000/svg" xmlns:xlink="http://www.w3.org/1999/xlink" x="0px" y="0px"
	 width="75px" height="75px" viewBox="0 0 75 75" style="enable-background:new 0 0 75 75;" xml:space="preserve">
<style type="text/css">
	.st0{fill:#FFFCDC;}
	.st1{fill:#8600B2;}
	.st2{fill:#FFE499;}
	.st3{fill:#FFB41F;}
	.st4{fill:#FC4380;}
	.st5{fill:#FFD400;}
	.st6{fill:#6B1C99;}
	.st7{fill:#64F9AB;}
	.st8{fill:#FF793E;}
	.st9{fill:#B7ACF9;}
	.st10{fill:#FCCA65;}
	.st11{fill:#FC2929;}
	.st12{fill:#9339D3;}
	.st13{fill:#D2E5FC;}
	.st14{fill:#1C74D3;}
	.st15{fill:#FF911A;}
	.st16{fill:#8273D8;}
	.st17{fill:#7B6DC6;}
	.st18{fill:#F7F2C1;}
	.st19{fill:#FCF1BB;}
	.st20{fill:#FFFAE6;}
	.st21{fill:url(#SVGID_1_);}
	.st22{fill:url(#SVGID_2_);}
</style>
<g>
	<g>
		<path class="st0" d="M37.5,73.5c-19.9,0-36-16.1-36-36s16.1-36,36-36s36,16.1,36,36S57.4,73.5,37.5,73.5z"/>
		<path class="st1" d="M37.5,3C56.5,3,72,18.5,72,37.5S56.5,72,37.5,72S3,56.5,3,37.5S18.5,3,37.5,3 M37.5,0C16.8,0,0,16.8,0,37.5
			S16.8,75,37.5,75S75,58.2,75,37.5S58.2,0,37.5,0L37.5,0z"/>
	</g>
	<circle class="st2" cx="62.4" cy="36.3" r="3.1"/>
	<polygon class="st3" points="59.6,56.1 60,57.6 61.4,58.1 60.1,58.9 60.1,60.5 58.9,59.5 57.4,59.9 58,58.5 57.1,57.3 58.6,57.3 	
		"/>
	<circle class="st4" cx="25.5" cy="31.2" r="1"/>
	<polygon class="st5" points="14.1,14.1 14.9,15.3 16.4,15.4 15.4,16.6 15.9,18 14.4,17.5 13.2,18.3 13.3,16.8 12.1,15.9 13.5,15.5 
			"/>
	<circle class="st6" cx="51.2" cy="21.9" r="4.1"/>
	<polygon class="st3" points="11.6,20.3 12.3,21.3 13.4,21.3 12.7,22.2 13,23.3 11.9,22.9 11,23.5 11,22.4 10.1,21.7 11.3,21.4 	"/>
	<circle class="st7" cx="46.7" cy="26.9" r="1.1"/>
	<circle class="st8" cx="58.9" cy="26.3" r="6.7"/>
	<circle class="st8" cx="32.7" cy="54.5" r="6.7"/>
	<circle class="st9" cx="21.4" cy="25.1" r="6.7"/>
	<circle class="st6" cx="32.2" cy="17.1" r="6.7"/>
	<circle class="st10" cx="50.9" cy="51.9" r="6.7"/>
	<circle class="st3" cx="20.4" cy="49.6" r="6.7"/>
	<circle class="st3" cx="37.4" cy="21.4" r="6.7"/>
	<circle class="st6" cx="16.4" cy="57" r="3.2"/>
	<circle class="st11" cx="44.5" cy="23.6" r="5.1"/>
	<ellipse transform="matrix(0.7071 -0.7071 0.7071 0.7071 -22.8421 45.585)" class="st9" cx="43.6" cy="50.4" rx="5.6" ry="5.6"/>
	<circle class="st12" cx="68.8" cy="38.8" r="1.3"/>
	<circle class="st6" cx="35.9" cy="51.3" r="4.1"/>
	<circle class="st11" cx="10.1" cy="36.6" r="6.7"/>
	<circle class="st11" cx="60.1" cy="49" r="6.7"/>
	<circle class="st13" cx="41.8" cy="18.5" r="1.8"/>
	<circle class="st7" cx="59.4" cy="47.4" r="1.4"/>
	<circle class="st14" cx="63.2" cy="48.8" r="1"/>
	<circle class="st12" cx="3.8" cy="42.6" r="1"/>
	<circle class="st9" cx="11.2" cy="25.5" r="0.9"/>
	<circle class="st2" cx="24.7" cy="56.2" r="1"/>
	<circle class="st12" cx="51.3" cy="52.7" r="1"/>
	<circle class="st3" cx="69.1" cy="40.6" r="1"/>
	<circle class="st15" cx="17.3" cy="31.2" r="4.1"/>
	<circle class="st12" cx="40.3" cy="57" r="4.1"/>
	<circle class="st12" cx="28.6" cy="20.9" r="4.1"/>
	<circle class="st3" cx="35.3" cy="54.3" r="1.8"/>
	<circle class="st13" cx="14.5" cy="25.5" r="1.8"/>
	<circle class="st2" cx="37.8" cy="21.9" r="3.5"/>
	<circle class="st16" cx="26.8" cy="52.7" r="3.2"/>
	<circle class="st6" cx="15.8" cy="40.6" r="4.1"/>
	<circle class="st13" cx="41.3" cy="23.2" r="1.5"/>
	<circle class="st9" cx="56.8" cy="33.6" r="4.1"/>
	<circle class="st13" cx="62.2" cy="32.4" r="1.8"/>
	<circle class="st6" cx="57.9" cy="41.2" r="4.1"/>
	<circle class="st17" cx="20" cy="36.6" r="3.1"/>
	<ellipse transform="matrix(0.618 -0.7861 0.7861 0.618 -17.7775 62.0547)" class="st17" cx="55" cy="49.3" rx="3.1" ry="3.1"/>
	<circle class="st13" cx="62.2" cy="41.4" r="1.9"/>
	<circle class="st9" cx="35.9" cy="24.1" r="3.2"/>
	<circle class="st13" cx="15.1" cy="42.1" r="1.8"/>
	<circle class="st13" cx="17" cy="34.3" r="2"/>
	<circle class="st13" cx="38" cy="54" r="2.2"/>
	<circle class="st18" cx="32.7" cy="21.7" r="1.5"/>
	<circle class="st19" cx="31.4" cy="50.9" r="1.8"/>
	<circle class="st2" cx="12.3" cy="42.9" r="1.8"/>
	<circle class="st19" cx="58.3" cy="28.7" r="1.8"/>
	<ellipse transform="matrix(0.866 -0.5 0.5 0.866 -8.1837 15.2608)" class="st19" cx="24.4" cy="22.9" rx="1.8" ry="1.8"/>
	<circle class="st19" cx="55" cy="51.4" r="1.8"/>
	<circle class="st12" cx="63.2" cy="33.6" r="1"/>
	<circle class="st12" cx="60.1" cy="37.1" r="1.8"/>
	<circle class="st2" cx="42.7" cy="57.3" r="1"/>
	<circle class="st12" cx="15.9" cy="31.4" r="1"/>
	<circle class="st12" cx="24.9" cy="23.7" r="1"/>
	<circle class="st3" cx="8.2" cy="43.3" r="1"/>
	<circle class="st3" cx="21" cy="18.3" r="1"/>
	<circle class="st11" cx="71.4" cy="37.1" r="1"/>
	<circle class="st12" cx="50.3" cy="15.9" r="1"/>
	<circle class="st3" cx="15.3" cy="37" r="1.8"/>
	<circle class="st12" cx="48.2" cy="21.9" r="1"/>
	<circle class="st14" cx="15.3" cy="47.9" r="1"/>
	<circle class="st11" cx="55.4" cy="57.3" r="1"/>
	<circle class="st2" cx="63.6" cy="28" r="1"/>
	<circle class="st11" cx="12.7" cy="27" r="0.9"/>
	<circle class="st11" cx="30.4" cy="19.4" r="1"/>
	<circle class="st11" cx="24.4" cy="51.5" r="1"/>
	<circle class="st11" cx="58.7" cy="30.9" r="1"/>
	<ellipse transform="matrix(0.3291 -0.9443 0.9443 0.3291 1.6631 94.4397)" class="st9" cx="67.3" cy="46" rx="2.6" ry="2.6"/>
	<circle class="st13" cx="53.2" cy="32.8" r="1.8"/>
	<circle class="st9" cx="22.7" cy="39.5" r="1.8"/>
	<circle class="st13" cx="28.6" cy="23.6" r="1.8"/>
	<circle class="st2" cx="25.3" cy="36.4" r="3.3"/>
	<circle class="st2" cx="57.9" cy="36.3" r="1.8"/>
	<path class="st20" d="M55.2,35c-0.9-1-1.6-1.4-3-2l0.1-1.1l4,0l0-7.9l-18.4-0.1l-0.3,2.7c-1.5-1.4-4.4-3.3-7.7-3.2c0,0-0.3,0-0.8,0
		c-1.8,0.1-3.6,0.5-5,1.2c-1.4,0.7-3.2,2.4-4,3.7c-0.8,1.3-1.2,2.7-1.2,4.3l0,2.7l8.8,0c0,0-0.6,0.6-1.1,1.1l-7.5,7.7l0,6.4l21,0.1
		l0-1.4c0.3,0.2,0.6,0.5,0.9,0.7c1.9,1.2,4.5,1.4,5.9,1.4c0.7,0,2.1-0.2,2.8-0.4c0.9-0.2,2.1-0.7,3.1-1.4c1.2-0.8,2.7-2.1,3.5-3.8
		c0.5-1.1,1.1-2.8,1.1-4.4C57.4,38.7,56.7,36.5,55.2,35z"/>
	<g>
		<linearGradient id="SVGID_1_" gradientUnits="userSpaceOnUse" x1="29.0404" y1="25.6399" x2="29.0404" y2="48.3725">
			<stop  offset="0" style="stop-color:#FFA83F"/>
			<stop  offset="0.1199" style="stop-color:#F69F44"/>
			<stop  offset="0.3137" style="stop-color:#DF8752"/>
			<stop  offset="0.5573" style="stop-color:#B9606A"/>
			<stop  offset="0.8382" style="stop-color:#852B8A"/>
			<stop  offset="1" style="stop-color:#64099E"/>
		</linearGradient>
		<path class="st21" d="M32.6,39.7c1.4-1.5,2.3-2.8,2.9-3.9c0.6-1.2,0.9-2.3,0.9-3.5c0-2.1-0.7-3.7-2-4.9c-1.3-1.1-3.2-1.7-5.5-1.7
			c0,0,0,0,0,0c-1.5,0-2.9,0.3-4.1,1c-1.2,0.7-2.2,1.6-2.8,2.7c-0.7,1.2-1,2.4-1,3.8l0,0.5l5.3,0l0-0.5c0-1,0.2-1.7,0.7-2.3
			c0.4-0.5,1.1-0.8,1.8-0.8c0,0,0,0,0,0c0.7,0,1.3,0.2,1.6,0.6c0.4,0.4,0.6,1.1,0.6,1.9c0,0.6-0.2,1.2-0.6,1.9
			c-0.4,0.7-1.1,1.6-2,2.6l-7.1,7.5l0,3.7l15.7,0l0-4.5l-8.5,0L32.6,39.7z"/>
		<linearGradient id="SVGID_2_" gradientUnits="userSpaceOnUse" x1="46.4625" y1="25.9528" x2="46.4625" y2="48.6817">
			<stop  offset="0" style="stop-color:#FFA83F"/>
			<stop  offset="0.1199" style="stop-color:#F69F44"/>
			<stop  offset="0.3137" style="stop-color:#DF8752"/>
			<stop  offset="0.5573" style="stop-color:#B9606A"/>
			<stop  offset="0.8382" style="stop-color:#852B8A"/>
			<stop  offset="1" style="stop-color:#64099E"/>
		</linearGradient>
		<path class="st22" d="M52.4,35.4c-1.3-1.4-3-2.1-5.2-2.1c-0.9,0-1.7,0.2-2.6,0.5l0.4-3.2l8.5,0l0-4.6l-13,0l-1.4,11.8l4.1,1
			l0.6-0.6c0.5-0.4,1.2-0.7,2.1-0.7c0,0,0,0,0,0c0.9,0,1.6,0.3,2.1,0.8c0.5,0.5,0.7,1.4,0.7,2.4c0,1.1-0.2,2-0.7,2.6
			c-0.4,0.5-1,0.8-1.8,0.8c0,0,0,0,0,0c-0.7,0-1.3-0.2-1.7-0.6c-0.4-0.4-0.7-1-0.8-1.7l0-0.5l-5.2,0l0,0.6c0,1.3,0.4,2.5,1.1,3.5
			c0.7,1,1.6,1.8,2.8,2.4c1.2,0.6,2.5,0.8,3.8,0.8c0,0,0,0,0,0c1.6,0,2.9-0.3,4.1-1c1.2-0.6,2.1-1.6,2.7-2.7c0.6-1.2,0.9-2.5,0.9-4
			C54.2,38.6,53.6,36.7,52.4,35.4z"/>
	</g>
	<circle class="st11" cx="20.9" cy="39.5" r="1"/>
	<circle class="st12" cx="15.3" cy="35.3" r="1"/>
	<circle class="st17" cx="69.1" cy="47.8" r="1.2"/>
	<circle class="st3" cx="67.8" cy="25.5" r="1"/>
</g>
</svg>
