<?xml version="1.0" encoding="utf-8"?>
<!-- Generator: Adobe Illustrator 19.2.1, SVG Export Plug-In . SVG Version: 6.00 Build 0)  -->
<svg version="1.0" id="Layer_1" xmlns="http://www.w3.org/2000/svg" xmlns:xlink="http://www.w3.org/1999/xlink" x="0px" y="0px"
	 width="128px" height="128px" viewBox="0 0 128 128" style="enable-background:new 0 0 128 128;" xml:space="preserve">
<style type="text/css">
	.st0{fill:#FFFDD6;}
	.st1{fill:#248ADB;}
	.st2{fill:#115CD3;}
	.st3{clip-path:url(#SVGID_2_);fill:#1052A0;}
	.st4{fill:#6DD0F7;}
	.st5{fill:#FFD400;}
	.st6{fill:#FFA81E;}
	.st7{fill:#FFB41F;}
	.st8{fill:#FC4380;}
	.st9{fill:#0298D3;}
	.st10{fill:#1C74D3;}
	.st11{fill:#FFB266;}
	.st12{fill:#A55F0C;}
	.st13{fill:#FFFFFF;}
	.st14{fill:#BBE5F2;}
</style>
<g>
	<g>
		<path class="st0" d="M64,127C29.3,127,1,98.7,1,64S29.3,1,64,1s63,28.3,63,63S98.7,127,64,127z"/>
		<path class="st1" d="M64,2c34.2,0,62,27.8,62,62s-27.8,62-62,62S2,98.2,2,64S29.8,2,64,2 M64,0C28.7,0,0,28.7,0,64s28.7,64,64,64
			s64-28.7,64-64S99.3,0,64,0L64,0z"/>
	</g>
	<path class="st2" d="M65.2,61.7l8.5-8.9c3.6-3.9,6.1-7.3,7.6-10.3c1.6-3.1,2.4-6.3,2.4-9.3c0-5.6-1.9-10.1-5.5-13.3
		c-3.6-3.1-8.5-4.7-14.7-4.7c-4.1,0-7.8,0.9-11.1,2.6c-3.3,1.8-6,4.3-7.9,7.4c-1.8,3.1-2.9,6.6-2.9,10.3V38l15,0v-2.5
		c0-2.2,1.1-3.8,2.2-5.1c0.9-1.1,2.6-1.6,4.3-1.6c1.5,0,2.8,0.4,3.5,1.2c0.8,0.9,1.3,2.3,1.3,4.1c0,1.3-0.4,2.8-1.4,4.4
		c-1.1,1.8-3,4-5.3,6.5L42.5,64.5v10.9l42.6,0l0.1-13.7L65.2,61.7z"/>
	<g>
		<defs>
			<path id="SVGID_1_" d="M65.2,61.7l8.5-8.9c3.6-3.9,6.1-7.3,7.6-10.3c1.6-3.1,2.4-6.3,2.4-9.3c0-5.6-1.9-10.1-5.5-13.3
				c-3.6-3.1-8.5-4.7-14.7-4.7c-4.1,0-7.8,0.9-11.1,2.6c-3.3,1.8-6,4.3-7.9,7.4c-1.8,3.1-2.9,6.6-2.9,10.3V38l15,0v-2.5
				c0-2.2,1.1-3.8,2.2-5.1c0.9-1.1,2.6-1.6,4.3-1.6c1.5,0,2.8,0.4,3.5,1.2c0.8,0.9,1.3,2.3,1.3,4.1c0,1.3-0.4,2.8-1.4,4.4
				c-1.1,1.8-3,4-5.3,6.5L42.5,64.5v10.9l42.6,0l0.1-13.7L65.2,61.7z"/>
		</defs>
		<clipPath id="SVGID_2_">
			<use xlink:href="#SVGID_1_"  style="overflow:visible;"/>
		</clipPath>
		<path class="st3" d="M53.1,74.1V60.6c0-1.8,1.5-3.3,3.3-3.3H57c1.8,0,3.3,1.5,3.3,3.3v13.5H53.1z"/>
		<path class="st3" d="M56.7,38.7c0,0-5.7,5.4-5.7,10.5c0,4.9,5.7,5.5,5.7,5.5s5.7-0.6,5.7-5.5C62.4,44.1,56.7,38.7,56.7,38.7z"/>
		<path class="st3" d="M69.6,74.1V60.6c0-1.8,1.5-3.3,3.3-3.3h0.6c1.8,0,3.3,1.5,3.3,3.3v13.5H69.6z"/>
		<path class="st3" d="M73.2,38.7c0,0-5.7,5.4-5.7,10.5c0,4.9,5.7,5.5,5.7,5.5s5.7-0.6,5.7-5.5C78.9,44.1,73.2,38.7,73.2,38.7z"/>
	</g>
	<g>
		<path class="st4" d="M52.3,74.1V60.6c0-1.8,1.5-3.3,3.3-3.3h0.6c1.8,0,3.3,1.5,3.3,3.3v13.5H52.3z"/>
		<path class="st5" d="M55.9,38.7c0,0-5.7,5.4-5.7,10.5c0,4.9,5.7,5.5,5.7,5.5s5.7-0.6,5.7-5.5C61.5,44.1,55.9,38.7,55.9,38.7z"/>
		<path class="st6" d="M55.9,54.7c0,0-5.7-0.6-5.7-5.5c0-5.1,5.7-10.5,5.7-10.5V54.7z"/>
	</g>
	<g>
		<path class="st4" d="M68.8,74.1V60.6c0-1.8,1.5-3.3,3.3-3.3h0.6c1.8,0,3.3,1.5,3.3,3.3v13.5H68.8z"/>
		<path class="st5" d="M72.4,38.7c0,0-5.7,5.4-5.7,10.5c0,4.9,5.7,5.5,5.7,5.5s5.7-0.6,5.7-5.5C78.1,44.1,72.4,38.7,72.4,38.7z"/>
		<path class="st6" d="M72.4,54.7c0,0-5.7-0.6-5.7-5.5c0-5.1,5.7-10.5,5.7-10.5V54.7z"/>
	</g>
	<polygon class="st5" points="19.4,39.7 20.2,42.5 22.9,43.4 20.5,45 20.4,47.8 18.2,46 15.5,46.9 16.5,44.2 14.8,41.8 17.7,42 	"/>
	<polygon class="st5" points="100.1,25.2 101.6,27.6 104.5,27.7 102.7,29.9 103.5,32.6 100.8,31.6 98.4,33.2 98.6,30.3 96.3,28.6 
		99.1,27.9 	"/>
	<polygon class="st7" points="91.7,36.2 92.8,38.1 95,38.1 93.6,39.8 94.2,41.9 92.2,41.1 90.4,42.3 90.6,40.2 88.9,38.8 90.9,38.3 
			"/>
	<path class="st4" d="M29.7,63.7c-4-0.8-6.8,3.7-6.9,3.9c0,0-0.7,1.1-1.9,0.9c-0.6-0.1-0.8-0.3-1.3-1c-0.5-0.7-1.2-1.6-2.5-2.1
		c-2.6-1-4.6,0.3-5.4,1.2c-0.5,0.6-0.5,1.5,0.1,2c0.6,0.5,1.5,0.5,2-0.1c0.1-0.1,0.9-0.9,2.2-0.4c0.5,0.2,0.7,0.5,1.2,1.1
		c0.6,0.8,1.4,1.9,3.2,2.2c0.2,0,0.5,0.1,0.7,0.1c2,0,3.5-1.3,4.1-2.3c0,0,1.9-3,3.9-2.6c0.8,0.2,1.5-0.3,1.7-1.1
		C31,64.6,30.5,63.8,29.7,63.7z"/>
	<path class="st8" d="M40.5,45.3c-2-3.6-7.3-2.7-7.5-2.7c0,0-1.3,0.1-1.9-0.8c-0.3-0.5-0.3-0.8-0.1-1.7c0.2-0.8,0.4-1.9,0-3.3
		c-1-2.6-3.2-3.3-4.4-3.3c-0.8,0-1.5,0.6-1.5,1.4c0,0.8,0.6,1.5,1.4,1.5c0,0,1.2,0,1.7,1.4c0.2,0.5,0.1,0.9-0.1,1.6
		c-0.2,1-0.5,2.3,0.5,3.9c1.3,2,3.6,2.3,4.8,2.1c0,0,3.5-0.5,4.5,1.2c0.3,0.5,0.8,0.7,1.3,0.7c0.2,0,0.5-0.1,0.7-0.2
		C40.7,46.9,40.9,46,40.5,45.3z"/>
	<path class="st6" d="M110.5,47.3c-4.1-0.2-6.1,4.8-6.2,4.9c0,0-0.6,1.2-1.7,1.2c0,0,0,0,0,0c-0.6,0-0.8-0.2-1.4-0.8
		c-0.6-0.6-1.4-1.4-2.8-1.7c-2.7-0.5-4.5,1-5.1,2c-0.4,0.7-0.2,1.5,0.4,2c0.7,0.4,1.5,0.2,2-0.4c0.1-0.2,0.8-1,2.1-0.7
		c0.5,0.1,0.8,0.4,1.3,0.9c0.7,0.7,1.7,1.7,3.5,1.7c0,0,0,0,0.1,0c2.4,0,3.8-1.8,4.3-2.9c0,0,1.4-3.3,3.4-3.2c0.8,0,1.5-0.6,1.5-1.4
		C111.9,48,111.3,47.3,110.5,47.3z"/>
	<circle class="st5" cx="39.3" cy="18.7" r="2.4"/>
	<circle class="st8" cx="85.3" cy="50.2" r="1.8"/>
	<circle class="st9" cx="42.1" cy="52.2" r="1.7"/>
	<circle class="st8" cx="98.1" cy="63.7" r="1.7"/>
	<circle class="st10" cx="104.5" cy="62.8" r="2.1"/>
	<circle class="st8" cx="26.6" cy="55.7" r="2"/>
	<circle class="st4" cx="114.5" cy="69.7" r="2.3"/>
	<circle class="st4" cx="90.8" cy="26.8" r="2.3"/>
	<circle class="st5" cx="39.3" cy="58.9" r="1.7"/>
	<g>
		<g>
			<path class="st8" d="M32.9,108.3V82.5c0-4.5,3.7-8.2,8.2-8.2h46c4.5,0,8.2,3.7,8.2,8.2v25.8H32.9z"/>
			<path class="st11" d="M95.3,89.1v-3.8c0-4.5-3.7-8.2-8.2-8.2h-46c-4.5,0-8.2,3.7-8.2,8.2v3.8c0,0,1.8,2.7,5.8,2.7
				s5.1-4.8,8.4-4.8c3,0,3.1,4.3,6.8,4.3c3.1,0,3.7-4.2,5.8-4.3c2.1-0.1,2.1,3.3,4.4,3.3c2.3,0,1.6-3.4,4.4-3.4
				c4-0.1,4.2,5.5,9.6,5.5c5.3,0,6-5.9,8.6-5.9c2.9,0,5.2,5,8.6,4.9V89.1z"/>
			<path class="st12" d="M95.3,85.9v-3.8c0-4.5-3.7-8.2-8.2-8.2h-46c-4.5,0-8.2,3.7-8.2,8.2v3.8c0,0,1.8,2.7,5.8,2.7
				s5.1-3.1,8.4-3.1c3,0,3,3.6,6.7,3.6c3.1,0,4.2-3.3,6.3-3.4c2.1-0.1,1.7,1.4,4,1.4c2.3,0,1.7-1.6,4.5-1.7c4-0.1,4.1,3.7,9.5,3.7
				c5.3,0,5.7-3.6,8.3-3.6c2.9,0,5.6,2.7,8.9,2.6V85.9z"/>
		</g>
		<g>
			<path class="st13" d="M40.4,80.6l-2.7-1.2c-0.5-0.2-0.7-0.8-0.5-1.3l0,0c0.2-0.5,0.8-0.7,1.3-0.5l2.7,1.2
				c0.5,0.2,0.7,0.8,0.5,1.3h0C41.5,80.6,40.9,80.8,40.4,80.6z"/>
			<path class="st13" d="M66.4,79.2l-2.9,0.2c-0.5,0-1-0.4-1-0.9l0,0c0-0.5,0.4-1,0.9-1l2.9-0.2c0.5,0,1,0.4,1,0.9l0,0
				C67.3,78.7,66.9,79.2,66.4,79.2z"/>
			<path class="st13" d="M73.5,82.9l-1.3-2.6c-0.2-0.5,0-1.1,0.4-1.3h0c0.5-0.2,1.1,0,1.3,0.4l1.3,2.6c0.2,0.5,0,1.1-0.4,1.3l0,0
				C74.3,83.6,73.7,83.4,73.5,82.9z"/>
			<path class="st13" d="M51.1,83v-2.9c0-0.5,0.4-1,1-1l0,0c0.5,0,1,0.4,1,1V83c0,0.5-0.4,1-1,1l0,0C51.6,84,51.1,83.6,51.1,83z"/>
			<path class="st13" d="M79.7,79.4l1.6-2.4c0.3-0.4,0.9-0.6,1.3-0.3l0,0c0.4,0.3,0.6,0.9,0.3,1.3l-1.6,2.4
				c-0.3,0.4-0.9,0.6-1.3,0.3l0,0C79.5,80.5,79.4,79.8,79.7,79.4z"/>
			<path class="st13" d="M90.4,81.8l2.9-0.2c0.5,0,1,0.4,1,0.9l0,0c0,0.5-0.4,1-0.9,1l-2.9,0.2c-0.5,0-1-0.4-1-0.9v0
				C89.5,82.4,89.9,81.9,90.4,81.8z"/>
		</g>
		<path class="st14" d="M98.8,112.8h-70c-0.3,0-0.6-0.3-0.6-0.6v-3.1c0-0.3,0.3-0.6,0.6-0.6h70c0.3,0,0.6,0.3,0.6,0.6v3.1
			C99.4,112.5,99.1,112.8,98.8,112.8z"/>
	</g>
</g>
</svg>
