<?xml version="1.0" encoding="utf-8"?>
<!-- Generator: Adobe Illustrator 19.2.1, SVG Export Plug-In . SVG Version: 6.00 Build 0)  -->
<svg version="1.0" id="Layer_1" xmlns="http://www.w3.org/2000/svg" xmlns:xlink="http://www.w3.org/1999/xlink" x="0px" y="0px"
	 width="75px" height="75px" viewBox="0 0 75 75" style="enable-background:new 0 0 75 75;" xml:space="preserve">
<style type="text/css">
	.st0{fill:#FFFFFF;}
	.st1{fill:#CD6925;}
	.st2{fill:#115CD3;}
	.st3{clip-path:url(#SVGID_2_);fill:#1052A0;}
	.st4{fill:#6DD0F7;}
	.st5{fill:#FFD400;}
	.st6{fill:#FFA81E;}
	.st7{fill:#FFB41F;}
	.st8{fill:#FC4380;}
	.st9{fill:#0298D3;}
	.st10{fill:#1C74D3;}
	.st11{fill:#FFB266;}
	.st12{fill:#A55F0C;}
	.st13{fill:#BBE5F2;}
</style>
<g>
	<g>
		<path class="st0" d="M37.5,73.5c-19.9,0-36-16.1-36-36s16.1-36,36-36s36,16.1,36,36S57.4,73.5,37.5,73.5z"/>
		<path class="st1" d="M37.5,3C56.5,3,72,18.5,72,37.5S56.5,72,37.5,72S3,56.5,3,37.5S18.5,3,37.5,3 M37.5,0C16.8,0,0,16.8,0,37.5
			S16.8,75,37.5,75S75,58.2,75,37.5S58.2,0,37.5,0L37.5,0z"/>
	</g>
	<g>
		<path class="st2" d="M38.2,36.2l5-5.2c2.1-2.3,3.6-4.3,4.4-6.1c0.9-1.8,1.4-3.7,1.4-5.5c0-3.3-1.1-5.9-3.2-7.8
			c-2.1-1.8-5-2.7-8.6-2.7c-2.4,0-4.6,0.5-6.5,1.5c-1.9,1-3.9,2.5-5,4.3c-1.1,1.8-2.1,3.9-2.1,6.1v1.5l9,0v-1.5c0-1.3,1-2.2,1.6-3
			c0.5-0.7,1.7-1,2.7-1c0.9,0,1.7,0.2,2.1,0.7c0.5,0.5,0.8,1.3,0.8,2.4c0,0.8-0.2,1.6-0.8,2.6c-0.6,1.1-2,2.3-3.3,3.8L24.5,37.8v6.4
			l25.2,0l0.2-8L38.2,36.2z"/>
		<g>
			<defs>
				<path id="SVGID_1_" d="M38.2,36.2l5-5.2c2.1-2.3,3.6-4.3,4.4-6.1c0.9-1.8,1.4-3.7,1.4-5.5c0-3.3-1.1-5.9-3.2-7.8
					c-2.1-1.8-5-2.7-8.6-2.7c-2.4,0-4.6,0.5-6.5,1.5c-1.9,1-3.9,2.5-5,4.3c-1.1,1.8-2.1,3.9-2.1,6.1v1.5l9,0v-1.5c0-1.3,1-2.2,1.6-3
					c0.5-0.7,1.7-1,2.7-1c0.9,0,1.7,0.2,2.1,0.7c0.5,0.5,0.8,1.3,0.8,2.4c0,0.8-0.2,1.6-0.8,2.6c-0.6,1.1-2,2.3-3.3,3.8L24.5,37.8
					v6.4l25.2,0l0.2-8L38.2,36.2z"/>
			</defs>
			<clipPath id="SVGID_2_">
				<use xlink:href="#SVGID_1_"  style="overflow:visible;"/>
			</clipPath>
			<path class="st3" d="M31.1,43.4v-7.9c0-1.1,0.9-1.9,1.9-1.9h0.3c1.1,0,1.9,0.9,1.9,1.9v7.9H31.1z"/>
			<path class="st3" d="M33.2,22.7c0,0-3.3,3.1-3.3,6.2c0,2.8,3.3,3.2,3.3,3.2s3.3-0.4,3.3-3.2C36.5,25.8,33.2,22.7,33.2,22.7z"/>
			<path class="st3" d="M40.8,43.4v-7.9c0-1.1,0.9-1.9,1.9-1.9h0.3c1.1,0,1.9,0.9,1.9,1.9v7.9H40.8z"/>
			<path class="st3" d="M42.9,22.7c0,0-3.3,3.1-3.3,6.2c0,2.8,3.3,3.2,3.3,3.2s3.3-0.4,3.3-3.2C46.2,25.8,42.9,22.7,42.9,22.7z"/>
		</g>
		<g>
			<path class="st4" d="M30.6,43.4v-7.9c0-1.1,0.9-1.9,1.9-1.9h0.3c1.1,0,1.9,0.9,1.9,1.9v7.9H30.6z"/>
			<path class="st5" d="M32.7,22.7c0,0-3.3,3.1-3.3,6.2c0,2.8,3.3,3.2,3.3,3.2s3.3-0.4,3.3-3.2C36.1,25.8,32.7,22.7,32.7,22.7z"/>
			<path class="st6" d="M32.7,32c0,0-3.3-0.4-3.3-3.2c0-3,3.3-6.2,3.3-6.2V32z"/>
		</g>
		<g>
			<path class="st4" d="M40.3,43.4v-7.9c0-1.1,0.9-1.9,1.9-1.9h0.3c1.1,0,1.9,0.9,1.9,1.9v7.9H40.3z"/>
			<path class="st5" d="M42.4,22.7c0,0-3.3,3.1-3.3,6.2c0,2.8,3.3,3.2,3.3,3.2s3.3-0.4,3.3-3.2C45.7,25.8,42.4,22.7,42.4,22.7z"/>
			<path class="st6" d="M42.4,32c0,0-3.3-0.4-3.3-3.2c0-3,3.3-6.2,3.3-6.2V32z"/>
		</g>
		<polygon class="st5" points="11.4,23.3 11.8,24.9 13.4,25.4 12,26.3 12,28 10.7,27 9.1,27.5 9.6,25.9 8.7,24.5 10.4,24.6 		"/>
		<polygon class="st5" points="58.6,14.7 59.5,16.2 61.2,16.2 60.2,17.5 60.6,19.1 59.1,18.5 57.7,19.4 57.8,17.8 56.4,16.7 
			58.1,16.3 		"/>
		<polygon class="st7" points="53.7,21.2 54.4,22.3 55.7,22.3 54.9,23.3 55.2,24.5 54,24.1 53,24.8 53.1,23.5 52.1,22.8 53.3,22.4 
					"/>
		<path class="st4" d="M17.4,37.3c-2.4-0.5-4,2.2-4,2.3c0,0-0.4,0.6-1.1,0.5c-0.3-0.1-0.5-0.2-0.8-0.6c-0.3-0.4-0.7-0.9-1.5-1.2
			c-1.5-0.6-2.7,0.2-3.1,0.7c-0.3,0.3-0.3,0.9,0.1,1.2c0.3,0.3,0.9,0.3,1.2,0c0.1-0.1,0.5-0.5,1.3-0.2c0.3,0.1,0.4,0.3,0.7,0.6
			c0.3,0.5,0.8,1.1,1.9,1.3c0.1,0,0.3,0,0.4,0c1.2,0,2-0.8,2.4-1.3c0,0,1.1-1.8,2.3-1.5c0.5,0.1,0.9-0.2,1-0.7
			C18.2,37.8,17.9,37.4,17.4,37.3z"/>
		<path class="st8" d="M23.7,26.6c-1.2-2.1-4.3-1.6-4.4-1.6c0,0-0.8,0.1-1.1-0.5c-0.2-0.3-0.2-0.5,0-1c0.1-0.5,0.3-1.1,0-1.9
			c-0.6-1.5-1.9-1.9-2.6-1.9c-0.5,0-0.8,0.4-0.9,0.8c0,0.5,0.4,0.8,0.8,0.9c0,0,0.7,0,1,0.8c0.1,0.3,0.1,0.5,0,0.9
			c-0.1,0.6-0.3,1.4,0.3,2.3c0.8,1.2,2.1,1.4,2.8,1.3c0,0,2.1-0.3,2.6,0.7c0.2,0.3,0.4,0.4,0.7,0.4c0.1,0,0.3,0,0.4-0.1
			C23.8,27.5,24,27,23.7,26.6z"/>
		<path class="st6" d="M64.8,27.7c-2.4-0.1-3.6,2.8-3.6,2.9c0,0-0.3,0.7-1,0.7c0,0,0,0,0,0c-0.3,0-0.5-0.1-0.8-0.5
			c-0.4-0.3-0.8-0.8-1.6-1c-1.6-0.3-2.6,0.6-3,1.2c-0.2,0.4-0.1,0.9,0.3,1.2c0.4,0.3,0.9,0.1,1.2-0.2c0.1-0.1,0.4-0.6,1.2-0.4
			c0.3,0.1,0.5,0.2,0.8,0.5c0.4,0.4,1,1,2,1c0,0,0,0,0,0c1.4,0,2.3-1.1,2.5-1.7c0,0,0.8-1.9,2-1.9c0.5,0,0.9-0.3,0.9-0.8
			C65.6,28.1,65.2,27.7,64.8,27.7z"/>
		<circle class="st5" cx="23" cy="11" r="1.4"/>
		<circle class="st8" cx="50" cy="29.4" r="1.1"/>
		<circle class="st9" cx="24.7" cy="30.6" r="1"/>
		<circle class="st8" cx="57.5" cy="37.3" r="1"/>
		<circle class="st10" cx="61.2" cy="36.8" r="1.2"/>
		<circle class="st8" cx="15.6" cy="32.6" r="1.2"/>
		<circle class="st4" cx="67.1" cy="40.9" r="1.3"/>
		<circle class="st4" cx="53.2" cy="15.7" r="1.3"/>
		<circle class="st5" cx="23" cy="34.5" r="1"/>
		<g>
			<g>
				<path class="st8" d="M19.3,63.5V48.3c0-2.6,2.2-4.8,4.8-4.8H51c2.6,0,4.8,2.2,4.8,4.8v15.1H19.3z"/>
				<path class="st11" d="M55.8,52.2V50c0-2.6-2.2-4.8-4.8-4.8H24.1c-2.6,0-4.8,2.2-4.8,4.8v2.2c0,0,1,1.6,3.4,1.6s3-2.8,4.9-2.8
					c1.8,0,1.8,2.5,4,2.5c1.8,0,2.2-2.5,3.4-2.5c1.2-0.1,1.2,1.9,2.6,1.9c1.4,0,1-2,2.6-2c2.4,0,2.5,3.2,5.6,3.2
					c3.1,0,3.5-3.4,5-3.4c1.7,0,3.1,3,5,2.9V52.2z"/>
				<path class="st12" d="M55.8,50.4v-2.2c0-2.6-2.2-4.8-4.8-4.8H24.1c-2.6,0-4.8,2.2-4.8,4.8v2.2c0,0,1,1.6,3.4,1.6s3-1.8,4.9-1.8
					c1.8,0,1.8,2.1,3.9,2.1c1.8,0,2.5-1.9,3.7-2c1.2-0.1,1,0.8,2.3,0.8c1.4,0,1-1,2.6-1c2.4,0,2.4,2.2,5.6,2.2
					c3.1,0,3.3-2.1,4.9-2.1c1.7,0,3.3,1.6,5.2,1.5V50.4z"/>
			</g>
			<g>
				<path class="st0" d="M23.7,47.2l-1.6-0.7c-0.3-0.1-0.4-0.5-0.3-0.7h0c0.1-0.3,0.5-0.4,0.7-0.3l1.6,0.7c0.3,0.1,0.4,0.5,0.3,0.7
					h0C24.3,47.2,24,47.4,23.7,47.2z"/>
				<path class="st0" d="M38.9,46.4l-1.7,0.1c-0.3,0-0.6-0.2-0.6-0.5l0,0c0-0.3,0.2-0.6,0.5-0.6l1.7-0.1c0.3,0,0.6,0.2,0.6,0.5v0
					C39.5,46.1,39.2,46.4,38.9,46.4z"/>
				<path class="st0" d="M43.1,48.6L42.3,47c-0.1-0.3,0-0.6,0.3-0.8l0,0c0.3-0.1,0.6,0,0.8,0.3l0.8,1.5c0.1,0.3,0,0.6-0.3,0.8l0,0
					C43.5,49,43.2,48.9,43.1,48.6z"/>
				<path class="st0" d="M30,48.7V47c0-0.3,0.3-0.6,0.6-0.6h0c0.3,0,0.6,0.3,0.6,0.6v1.7c0,0.3-0.3,0.6-0.6,0.6h0
					C30.2,49.2,30,49,30,48.7z"/>
				<path class="st0" d="M46.7,46.5l1-1.4c0.2-0.3,0.5-0.3,0.8-0.2l0,0c0.3,0.2,0.3,0.5,0.2,0.8l-1,1.4c-0.2,0.3-0.5,0.3-0.8,0.2
					l0,0C46.6,47.1,46.5,46.8,46.7,46.5z"/>
				<path class="st0" d="M53,48l1.7-0.1c0.3,0,0.6,0.2,0.6,0.5l0,0c0,0.3-0.2,0.6-0.5,0.6l-1.7,0.1c-0.3,0-0.6-0.2-0.6-0.5l0,0
					C52.4,48.3,52.7,48,53,48z"/>
			</g>
			<path class="st13" d="M55.6,66.1h-36c-0.2,0-0.4-0.2-0.4-0.4v-1.8c0-0.2,0.2-0.4,0.4-0.4h36c0.2,0,0.4,0.2,0.4,0.4v1.8
				C56,65.9,55.8,66.1,55.6,66.1z"/>
		</g>
	</g>
</g>
</svg>
