<?xml version="1.0" encoding="utf-8"?>
<!-- Generator: Adobe Illustrator 19.2.1, SVG Export Plug-In . SVG Version: 6.00 Build 0)  -->
<svg version="1.0" id="Layer_1" xmlns="http://www.w3.org/2000/svg" xmlns:xlink="http://www.w3.org/1999/xlink" x="0px" y="0px"
	 width="128px" height="128px" viewBox="0 0 128 128" style="enable-background:new 0 0 128 128;" xml:space="preserve">
<style type="text/css">
	.st0{fill:#FCF8E3;}
	.st1{fill:#248ADB;}
	.st2{fill:#FF793E;}
	.st3{fill:#F9572B;}
	.st4{fill:#FFB41F;}
	.st5{fill:#FFD400;}
	.st6{fill:#A55CE5;}
	.st7{fill:#D2ACFC;}
	.st8{fill:#FFE499;}
	.st9{fill:#FFC655;}
	.st10{fill:#FFFFFF;}
	.st11{fill:url(#SVGID_1_);}
	.st12{fill:url(#SVGID_2_);}
	.st13{fill:#7E248E;}
	.st14{fill:#FC2929;}
</style>
<g>
	<g>
		<path class="st0" d="M64,127C29.3,127,1,98.7,1,64S29.3,1,64,1s63,28.3,63,63S98.7,127,64,127z"/>
		<path class="st1" d="M64,2c34.2,0,62,27.8,62,62s-27.8,62-62,62S2,98.2,2,64S29.8,2,64,2 M64,0C28.7,0,0,28.7,0,64s28.7,64,64,64
			s64-28.7,64-64S99.3,0,64,0L64,0z"/>
	</g>
	<circle class="st2" cx="102.7" cy="57.7" r="10.1"/>
	<circle class="st3" cx="85.7" cy="30.3" r="9.5"/>
	<circle class="st3" cx="20.3" cy="83.1" r="8.5"/>
	<polygon class="st4" points="103,98.7 103.7,101.3 106.3,102.2 104,103.7 104,106.4 101.9,104.7 99.3,105.5 100.2,102.9 
		98.7,100.7 101.4,100.8 	"/>
	<polygon class="st5" points="22.5,24.3 24,26.6 26.7,26.7 25,28.7 25.7,31.3 23.2,30.4 21,31.9 21.1,29.2 19,27.5 21.6,26.8 	"/>
	<circle class="st6" cx="41.2" cy="38.2" r="13.4"/>
	<circle class="st6" cx="97.8" cy="84.8" r="13.9"/>
	<circle class="st6" cx="61.9" cy="18.7" r="1.9"/>
	<circle class="st6" cx="39.9" cy="94" r="10.6"/>
	<polygon class="st4" points="77.5,16.8 79.9,27.1 89.7,31 80.7,36.4 80,46.9 72,40 61.8,42.6 66,32.9 60.3,24 70.8,25 	"/>
	<circle class="st7" cx="95.5" cy="69.8" r="10.8"/>
	<circle class="st7" cx="65.4" cy="41" r="11.9"/>
	<circle class="st8" cx="75" cy="42.6" r="6.9"/>
	<circle class="st8" cx="106.3" cy="74.6" r="6.9"/>
	<circle class="st8" cx="65.5" cy="84.8" r="6.9"/>
	<polygon class="st9" points="52.5,26.6 57,32.6 64.4,32.3 60.1,38.3 62.7,45.3 55.6,43.1 49.8,47.7 49.7,40.3 43.5,36.2 50.5,33.8 
			"/>
	<polygon class="st9" points="101.7,34.6 103.5,42.9 111.4,46 104.2,50.3 103.6,58.8 97.3,53.2 89.1,55.3 92.4,47.5 87.8,40.4 
		96.3,41.1 	"/>
	<polygon class="st9" points="50.1,81.8 51.7,88.8 58.3,91.4 52.2,95.1 51.7,102.3 46.3,97.6 39.4,99.3 42.2,92.7 38.3,86.7 
		45.5,87.3 	"/>
	<polygon class="st8" points="79.1,76.6 81.4,86.9 91.2,90.8 82.2,96.2 81.5,106.7 73.6,99.8 63.4,102.4 67.5,92.7 61.8,83.8 
		72.3,84.8 	"/>
	<circle class="st7" cx="68.1" cy="86" r="9.4"/>
	<polygon class="st4" points="18.3,35.3 19.4,37 21.4,37.1 20.1,38.7 20.7,40.6 18.8,39.9 17.1,41 17.2,39 15.6,37.8 17.6,37.2 	"/>
	<polygon class="st8" points="29.2,46.7 31.6,56.9 41.4,60.8 32.3,66.2 31.7,76.8 23.7,69.8 13.5,72.5 17.6,62.8 12,53.9 22.5,54.8 
			"/>
	<circle class="st7" cx="30.4" cy="75.3" r="11"/>
	<circle class="st2" cx="29.8" cy="63.1" r="6.5"/>
	<circle class="st2" cx="58.1" cy="90.8" r="6.5"/>
	<circle class="st8" cx="28.1" cy="91.7" r="6.9"/>
	<polygon class="st4" points="27.8,54.1 30.5,54.3 32.2,52.1 32.9,54.7 35.4,55.6 33.2,57.1 33.1,59.8 31,58.1 28.4,58.9 29.4,56.3 
			"/>
	<circle class="st4" cx="33.9" cy="86" r="3"/>
	<path class="st10" d="M51.3,56.5C51.3,56.5,51.3,56.5,51.3,56.5c-1.8,0-3.6-0.3-5.3,0.3l-0.1,5.3l19.6-0.3V41.7l-30.7,0L32,68.2
		l10.4,2.2l0.5-0.8l-10.9,0l-0.1,3c0,3.8,1.2,7.4,3.2,10c1.6,2.1,3.5,4.4,6,5.6c2.5,1.2,5.2,2.3,8,2.3c0,0,0,0,0,0
		c3.3,0,6.2-1.3,8.6-2.6c2.5-1.4,4.8-3.4,6.1-5.9c1.3-2.4,2.3-6,2.4-10.3c0.1-5-1.3-8.5-3.9-11.3C59.6,57.4,55.9,56.5,51.3,56.5z"/>
	<path class="st10" d="M42.5,69.4l-11.5,0l-0.1,3.1c0,4,1.2,7.7,3.4,10.5c1.7,2.2,3.6,4.2,6.3,5.5c2.6,1.2,5.4,2,8.5,2c0,0,0,0,0,0
		c3.4,0,6.5-0.9,9.1-2.3c2.6-1.4,5.1-3.4,6.4-6c1.4-2.6,2.4-6.2,2.5-10.8c0.1-5.3-1.4-9.6-4.1-12.6"/>
	<circle class="st8" cx="99.7" cy="53" r="3"/>
	<line class="st10" x1="42.3" y1="70.1" x2="42.7" y2="69.3"/>
	<path class="st10" d="M93.6,46.6c-3.3-3.5-8.2-5.1-14.4-5.1c0,0,0,0,0,0c-6.2,0-11,1.6-14.4,5.1c-3.3,3.4-4.9,8.4-4.9,14.8l0,8.2
		c0.1,6.2,1.8,11.7,5,15.1c3.3,3.5,8.2,5.8,14.4,5.8c0,0,0,0,0,0c6.3,0,11.1-2.4,14.4-5.9c3.2-3.5,4.9-8.8,4.9-15.2l0-8.3
		C98.5,54.9,96.8,50,93.6,46.6z"/>
	<linearGradient id="SVGID_1_" gradientUnits="userSpaceOnUse" x1="48.9589" y1="45.3338" x2="48.9589" y2="86.5">
		<stop  offset="0" style="stop-color:#FFA83F"/>
		<stop  offset="0.1482" style="stop-color:#F89F48"/>
		<stop  offset="0.3876" style="stop-color:#E4875F"/>
		<stop  offset="0.6884" style="stop-color:#C56186"/>
		<stop  offset="1" style="stop-color:#9E31B5"/>
	</linearGradient>
	<path class="st11" d="M50.2,58.5C50.2,58.5,50.2,58.5,50.2,58.5c-1.5,0-3,0.2-4.5,0.7l0.1-5.5l14.6,0v-8.3l-22.6,0l-2.1,21l7.5,1.8
		l1.2-1c0.9-0.8,2.2-1.2,3.7-1.2c1.7,0,2.9,0.5,3.8,1.4c0.9,0.9,1.3,2.4,1.3,4.2c0,2-0.4,4-1.2,5c-0.7,1-1.7,1.8-3.1,1.8
		c0,0,0,0,0,0c-1.3,0-2.2-0.8-3-1.5c-0.8-0.7-1.2-1.9-1.3-3.2l-0.1-1l-9.4-0.1l0,1c0.1,2.3,0.7,4.4,2,6.3c1.2,1.8,2.9,3.6,5.1,4.6
		c2.1,1,4.4,1.9,6.8,1.9c0,0,0,0,0,0c2.8,0,5.2-0.9,7.3-2.1c2.1-1.2,3.7-3,4.8-5.1c1.1-2.1,1.7-4.5,1.7-7.1c0-4.3-1.1-7.6-3.3-10
		C57.2,59.7,54.1,58.5,50.2,58.5z"/>
	<linearGradient id="SVGID_2_" gradientUnits="userSpaceOnUse" x1="79.2436" y1="45.5" x2="79.2436" y2="86.5">
		<stop  offset="0" style="stop-color:#FFA83F"/>
		<stop  offset="0.1482" style="stop-color:#F89F48"/>
		<stop  offset="0.3876" style="stop-color:#E4875F"/>
		<stop  offset="0.6884" style="stop-color:#C56186"/>
		<stop  offset="1" style="stop-color:#9E31B5"/>
	</linearGradient>
	<path class="st12" d="M89.5,49.6c-2.4-3-5.8-4.1-10.3-4.1c0,0,0,0,0,0c-4.4,0-7.9,1.2-10.3,4.2c-2.3,2.9-3.5,7-3.5,12.5l0,6.9
		c0.1,5.3,1.3,9.8,3.6,12.7c2.4,3,5.8,4.8,10.3,4.8c0,0,0,0,0,0c4.5,0,8-1.9,10.3-4.9c2.3-2.9,3.5-7.4,3.5-12.8l0-6.9
		C93,56.6,91.8,52.5,89.5,49.6z M75,60.4c0-2.7,0.4-4.7,1.2-5.9c0.7-1.1,1.6-1.6,3-1.6c1.5,0,2.5,0.5,3.1,1.6
		c0.8,1.3,1.1,3.4,1.1,6.3l0,9c0,2.8-0.4,5.3-1.1,6.5c-0.6,1.1-1.6,2.1-3.1,2.1c0,0,0,0,0,0c-1.5,0-2.5-1-3.1-2.2
		C75.4,75,75,72.7,75,69.8L75,60.4z"/>
	<circle class="st13" cx="110.8" cy="48.7" r="4.4"/>
	<circle class="st13" cx="30.4" cy="37.2" r="4.4"/>
	<circle class="st13" cx="22.8" cy="67.9" r="4.4"/>
	<circle class="st4" cx="36.9" cy="34.2" r="3"/>
	<circle class="st4" cx="64" cy="89.3" r="3"/>
	<circle class="st6" cx="61.9" cy="18.7" r="1.9"/>
	<circle class="st6" cx="117.1" cy="81.5" r="1.9"/>
	<circle class="st14" cx="54.4" cy="23.3" r="1.9"/>
	<circle class="st14" cx="64.2" cy="107.3" r="3.4"/>
	<circle class="st14" cx="36.9" cy="104.2" r="1.9"/>
	<circle class="st2" cx="58.1" cy="102.5" r="1.9"/>
	<circle class="st6" cx="9.7" cy="69.6" r="1.9"/>
	<circle class="st6" cx="99.6" cy="45.3" r="1.9"/>
	<circle class="st6" cx="28.1" cy="88.1" r="1.9"/>
	<polygon class="st8" points="98.3,80.3 99.7,82.6 102.4,82.7 100.7,84.8 101.5,87.4 99,86.4 96.7,87.9 96.9,85.2 94.8,83.6 
		97.4,82.9 	"/>
	<polygon class="st8" points="85.4,17.6 86.9,19.8 89.6,19.9 87.8,22 88.6,24.6 86.1,23.6 83.9,25.2 84,22.5 81.9,20.8 84.5,20.1 	
		"/>
	<polygon class="st8" points="48,93.5 49.5,95.8 52.2,95.8 50.5,97.9 51.2,100.5 48.7,99.5 46.5,101.1 46.6,98.4 44.5,96.7 47.1,96 
			"/>
	<polygon class="st7" points="72.1,5.9 73.5,8.2 76.2,8.3 74.5,10.4 75.3,13 72.8,12 70.5,13.5 70.7,10.8 68.5,9.2 71.2,8.5 	"/>
	<polygon class="st7" points="51.8,97 52.2,99.7 54.6,100.8 52.2,102 51.8,104.7 49.9,102.8 47.3,103.3 48.5,100.9 47.2,98.5 
		49.9,98.9 	"/>
	<polygon class="st8" points="107.1,34.9 107.1,37.6 109.3,39.1 106.7,39.9 105.9,42.5 104.4,40.3 101.7,40.4 103.3,38.2 
		102.4,35.6 105,36.5 	"/>
	<polygon class="st4" points="79,95 78.9,97.7 81.1,99.3 78.6,100.1 77.8,102.6 76.2,100.4 73.5,100.5 75.1,98.3 74.3,95.8 
		76.8,96.6 	"/>
	<polygon class="st8" points="48.7,27.8 48.5,30.5 50.5,32.2 47.9,32.8 46.9,35.4 45.5,33 42.8,32.9 44.6,30.8 43.9,28.2 46.4,29.3 
			"/>
	<polygon class="st13" points="27.6,72.4 28.7,74.2 30.7,74.2 29.4,75.8 30,77.8 28.1,77 26.4,78.2 26.5,76.1 24.9,74.9 26.9,74.4 	
		"/>
	<polygon class="st13" points="84,90.9 85.1,92.7 87.1,92.7 85.9,94.3 86.4,96.2 84.5,95.5 82.8,96.7 83,94.6 81.3,93.4 83.3,92.9 	
		"/>
	<polygon class="st13" points="103.5,61.4 103.9,63.4 105.8,64.2 104,65.2 103.9,67.2 102.4,65.8 100.4,66.3 101.2,64.4 100.2,62.7 
		102.2,62.9 	"/>
</g>
</svg>
