<?xml version="1.0" encoding="utf-8"?>
<!-- Generator: Adobe Illustrator 19.2.1, SVG Export Plug-In . SVG Version: 6.00 Build 0)  -->
<svg version="1.0" id="Layer_1" xmlns="http://www.w3.org/2000/svg" xmlns:xlink="http://www.w3.org/1999/xlink" x="0px" y="0px"
	 width="75px" height="75px" viewBox="0 0 75 75" style="enable-background:new 0 0 75 75;" xml:space="preserve">
<style type="text/css">
	.st0{fill:#FCF8E3;}
	.st1{fill:#8600B2;}
	.st2{fill:#FF793E;}
	.st3{fill:#F9572B;}
	.st4{fill:#FFB41F;}
	.st5{fill:#FFD400;}
	.st6{fill:#A55CE5;}
	.st7{fill:#D2ACFC;}
	.st8{fill:#FFE499;}
	.st9{fill:#FFC655;}
	.st10{fill:#FFFFFF;}
	.st11{fill:url(#SVGID_1_);}
	.st12{fill:url(#SVGID_2_);}
	.st13{fill:#7E248E;}
	.st14{fill:#FC2929;}
</style>
<g>
	<g>
		<path class="st0" d="M37.5,73.5c-19.9,0-36-16.1-36-36s16.1-36,36-36s36,16.1,36,36S57.4,73.5,37.5,73.5z"/>
		<path class="st1" d="M37.5,3C56.5,3,72,18.5,72,37.5S56.5,72,37.5,72S3,56.5,3,37.5S18.5,3,37.5,3 M37.5,0C16.8,0,0,16.8,0,37.5
			S16.8,75,37.5,75S75,58.2,75,37.5S58.2,0,37.5,0L37.5,0z"/>
	</g>
	<circle class="st2" cx="59.4" cy="33.8" r="5.7"/>
	<circle class="st3" cx="49.8" cy="18.3" r="5.4"/>
	<circle class="st3" cx="12.7" cy="48.2" r="4.8"/>
	<polygon class="st4" points="59.6,57 60,58.5 61.4,59 60.1,59.8 60.1,61.4 58.9,60.4 57.5,60.8 58,59.4 57.1,58.2 58.6,58.2 	"/>
	<polygon class="st5" points="14,14.9 14.8,16.2 16.4,16.3 15.4,17.4 15.8,18.9 14.4,18.3 13.1,19.2 13.2,17.7 12,16.7 13.5,16.4 	
		"/>
	<circle class="st6" cx="24.6" cy="22.8" r="7.6"/>
	<circle class="st6" cx="56.6" cy="49.2" r="7.9"/>
	<circle class="st6" cx="36.3" cy="11.8" r="1.1"/>
	<circle class="st6" cx="23.8" cy="54.4" r="6"/>
	<polygon class="st4" points="45.1,10.7 46.5,16.5 52,18.7 46.9,21.8 46.5,27.7 42,23.8 36.3,25.3 38.6,19.8 35.4,14.8 41.3,15.3 	
		"/>
	<circle class="st7" cx="55.3" cy="40.7" r="6.1"/>
	<circle class="st7" cx="38.3" cy="24.4" r="6.7"/>
	<circle class="st8" cx="43.7" cy="25.3" r="3.9"/>
	<circle class="st8" cx="61.4" cy="43.4" r="3.9"/>
	<circle class="st8" cx="38.3" cy="49.2" r="3.9"/>
	<polygon class="st9" points="31,16.2 33.5,19.6 37.7,19.4 35.3,22.9 36.8,26.8 32.8,25.6 29.5,28.2 29.4,24 25.9,21.6 29.9,20.3 	
		"/>
	<polygon class="st9" points="58.8,20.8 59.9,25.4 64.3,27.2 60.2,29.6 59.9,34.4 56.3,31.3 51.7,32.5 53.5,28.1 51,24 55.7,24.5 	
		"/>
	<polygon class="st9" points="29.6,47.5 30.5,51.4 34.3,52.9 30.8,55 30.5,59 27.5,56.4 23.6,57.4 25.1,53.7 23,50.2 27,50.6 	"/>
	<polygon class="st8" points="46,44.5 47.4,50.3 52.9,52.5 47.8,55.6 47.4,61.6 42.9,57.6 37.1,59.1 39.5,53.6 36.3,48.6 42.2,49.1 
			"/>
	<circle class="st7" cx="39.8" cy="49.8" r="5.3"/>
	<polygon class="st4" points="11.6,21.2 12.2,22.1 13.4,22.2 12.6,23.1 13,24.2 11.9,23.7 10.9,24.4 11,23.2 10.1,22.5 11.2,22.2 	
		"/>
	<polygon class="st8" points="17.8,27.6 19.1,33.4 24.7,35.6 19.6,38.7 19.2,44.6 14.7,40.7 8.9,42.2 11.3,36.7 8.1,31.7 14,32.2 	
		"/>
	<circle class="st7" cx="18.4" cy="43.8" r="6.2"/>
	<circle class="st2" cx="18.1" cy="36.9" r="3.7"/>
	<circle class="st2" cx="34.2" cy="52.5" r="3.7"/>
	<circle class="st8" cx="17.2" cy="53.1" r="3.9"/>
	<polygon class="st4" points="17,31.8 18.5,31.9 19.5,30.7 19.9,32.1 21.3,32.6 20,33.5 20,35 18.8,34 17.3,34.5 17.9,33.1 	"/>
	<circle class="st4" cx="20.4" cy="49.8" r="1.7"/>
	<circle class="st8" cx="57.7" cy="31.1" r="1.7"/>
	<line class="st10" x1="25.2" y1="40.8" x2="25.5" y2="40.4"/>
	<path class="st10" d="M54.8,27.2c-2-2-4.8-3.1-8.4-3.1c0,0,0,0,0,0c-3.1,0-5.7,0.8-7.6,2.3v-2l-18.2,0L18.9,40l3.9,0.8l-4.1,0
		l-0.1,1.7c0,2.2,0.7,4.3,1.9,5.8c0.9,1.2,2,2.2,3.5,2.9c1.4,0.7,3,0.9,4.7,0.9c0,0,0,0,0,0c1.9,0,3.6-0.3,5-1.1
		c1.3-0.7,2.6-1.7,3.4-3c0.3,0.4,0.6,0.8,0.9,1.1c1.9,2,4.8,3,8.4,3c0,0,0,0,0,0c3.7,0,6.5-1,8.5-3c1.9-2,2.8-4.9,2.8-8.7l0-4.8
		C57.7,32,56.7,29.2,54.8,27.2z"/>
	<linearGradient id="SVGID_1_" gradientUnits="userSpaceOnUse" x1="28.6868" y1="26.5628" x2="28.6868" y2="50">
		<stop  offset="0" style="stop-color:#FFA83F"/>
		<stop  offset="0.1482" style="stop-color:#F89F48"/>
		<stop  offset="0.3876" style="stop-color:#E4875F"/>
		<stop  offset="0.6884" style="stop-color:#C56186"/>
		<stop  offset="1" style="stop-color:#9E31B5"/>
	</linearGradient>
	<path class="st11" d="M29.4,34C29.4,34,29.4,34,29.4,34c-0.9,0-1.8,0.2-2.6,0.5l0.3-3.1l8.8,0v-4.9l-13.5,0l-1.4,12.3l4.3,1.1
		l0.6-0.6c0.5-0.5,1.2-0.7,2.2-0.7c1,0,1.7,0.3,2.2,0.8c0.5,0.6,0.8,1.4,0.8,2.5c0,1.2-0.2,1.8-0.7,2.4c-0.4,0.6-1,0.6-1.8,0.6
		c0,0,0,0,0,0c-0.7,0-1.3,0-1.8-0.4c-0.4-0.4-0.7-0.9-0.8-1.6l-0.1-0.5l-5.5,0l0,0.6c0,1.4,0.4,2.6,1.2,3.7c0.7,1.1,1.7,1.8,3,2.4
		c1.2,0.6,2.6,0.8,4,0.8c0,0,0,0,0,0c1.6,0,3.1-0.2,4.3-0.9c1.2-0.7,2.2-1.6,2.8-2.8c0.6-1.2,1-2.6,1-4.1c0-2.5-0.7-4.6-2-6
		C33.5,34.8,31.7,34,29.4,34z"/>
	<linearGradient id="SVGID_2_" gradientUnits="userSpaceOnUse" x1="46.5" y1="26" x2="46.5" y2="50">
		<stop  offset="0" style="stop-color:#FFA83F"/>
		<stop  offset="0.1482" style="stop-color:#F89F48"/>
		<stop  offset="0.3876" style="stop-color:#E4875F"/>
		<stop  offset="0.6884" style="stop-color:#C56186"/>
		<stop  offset="1" style="stop-color:#9E31B5"/>
	</linearGradient>
	<path class="st12" d="M52.7,28.7C51.3,27,49,26,46.4,26c0,0,0,0,0,0c-2.6,0-4.8,1-6.2,2.8c-1.4,1.7-2.2,4.3-2.2,7.5v4.1
		c0,3.6,0.9,5.4,2.3,7.1c1.4,1.7,3.6,2.5,6.2,2.5c0,0,0,0,0,0c2.6,0,4.9-0.8,6.3-2.5c1.3-1.7,2.3-4.1,2.3-7.3v-4.1
		C55,33,54,30.4,52.7,28.7z M44,35.4c0-1.6,0.2-2.7,0.7-3.4c0.4-0.6,0.9-0.9,1.8-0.9c0.9,0,1.5,0.3,1.9,1c0.4,0.7,0.7,2,0.7,3.7V41
		c0,1.6-0.3,2.6-0.7,3.3c-0.4,0.7-1,0.7-1.8,0.7c0,0,0,0,0,0c-0.9,0-1.4-0.1-1.8-0.8c-0.4-0.8-0.6-1.8-0.6-3.5V35.4z"/>
	<circle class="st13" cx="64" cy="28.7" r="2.5"/>
	<circle class="st13" cx="18.5" cy="22.2" r="2.5"/>
	<circle class="st13" cx="14.2" cy="39.6" r="2.5"/>
	<circle class="st4" cx="22.1" cy="20.5" r="1.7"/>
	<circle class="st4" cx="37.5" cy="51.7" r="1.7"/>
	<circle class="st6" cx="36.3" cy="11.8" r="1.1"/>
	<circle class="st6" cx="67.6" cy="47.3" r="1.1"/>
	<circle class="st14" cx="32.1" cy="14.3" r="1.1"/>
	<circle class="st14" cx="37.6" cy="61.9" r="1.9"/>
	<circle class="st14" cx="22.1" cy="60.1" r="1.1"/>
	<circle class="st2" cx="34.2" cy="59.2" r="1.1"/>
	<circle class="st6" cx="6.8" cy="40.5" r="1.1"/>
	<circle class="st6" cx="57.7" cy="26.8" r="1.1"/>
	<circle class="st6" cx="17.2" cy="51" r="1.1"/>
	<polygon class="st8" points="56.9,46.6 57.7,47.9 59.2,48 58.3,49.2 58.7,50.6 57.3,50.1 56,50.9 56.1,49.4 54.9,48.5 56.4,48.1 	
		"/>
	<polygon class="st8" points="49.6,11.1 50.4,12.4 51.9,12.4 51,13.6 51.4,15.1 50,14.5 48.7,15.4 48.8,13.9 47.6,12.9 49.1,12.5 	
		"/>
	<polygon class="st8" points="28.4,54.1 29.3,55.4 30.8,55.4 29.8,56.6 30.3,58.1 28.8,57.5 27.6,58.4 27.7,56.8 26.4,55.9 
		27.9,55.5 	"/>
	<polygon class="st7" points="42.1,4.5 42.9,5.8 44.4,5.9 43.4,7 43.9,8.5 42.4,7.9 41.2,8.8 41.3,7.3 40.1,6.3 41.5,6 	"/>
	<polygon class="st7" points="30.6,56.1 30.8,57.6 32.2,58.2 30.8,58.9 30.6,60.4 29.5,59.3 28,59.6 28.7,58.3 28,56.9 29.5,57.2 	
		"/>
	<polygon class="st8" points="61.9,20.9 61.9,22.4 63.1,23.3 61.7,23.8 61.2,25.2 60.3,24 58.8,24 59.7,22.8 59.2,21.3 60.7,21.8 	
		"/>
	<polygon class="st4" points="46,54.9 45.9,56.5 47.2,57.3 45.7,57.8 45.3,59.3 44.4,58 42.9,58 43.8,56.8 43.3,55.4 44.7,55.8 	"/>
	<polygon class="st8" points="28.8,16.9 28.7,18.4 29.9,19.4 28.4,19.7 27.8,21.2 27,19.9 25.5,19.8 26.5,18.6 26.1,17.1 27.5,17.7 
			"/>
	<polygon class="st13" points="16.9,42.2 17.5,43.1 18.6,43.2 17.9,44.1 18.2,45.2 17.2,44.8 16.2,45.4 16.3,44.3 15.4,43.5 
		16.5,43.3 	"/>
	<polygon class="st13" points="48.8,52.6 49.4,53.6 50.6,53.6 49.9,54.5 50.2,55.6 49.1,55.2 48.1,55.9 48.2,54.7 47.3,54 
		48.4,53.7 	"/>
	<polygon class="st13" points="59.9,35.9 60.1,37 61.2,37.5 60.1,38 60.1,39.2 59.2,38.4 58.1,38.7 58.6,37.6 58,36.6 59.1,36.8 	
		"/>
</g>
</svg>
