<?xml version="1.0" encoding="utf-8"?>
<!-- Generator: Adobe Illustrator 19.2.1, SVG Export Plug-In . SVG Version: 6.00 Build 0)  -->
<svg version="1.0" id="Isolation_Mode" xmlns="http://www.w3.org/2000/svg" xmlns:xlink="http://www.w3.org/1999/xlink" x="0px"
	 y="0px" width="29px" height="29px" viewBox="0 0 29 29" style="enable-background:new 0 0 29 29;" xml:space="preserve">
<style type="text/css">
	.st0{fill:#0056B8;}
</style>
<path class="st0" d="M14.5,0C6.5,0,0,6.5,0,14.5C0,22.5,6.5,29,14.5,29c8,0,14.5-6.5,14.5-14.5C29,6.5,22.5,0,14.5,0z M19,9.8
	c0,0.2-0.2,0.3-0.3,0.3h-1.5c-1,0-1.2,0.4-1.2,1.2v1.6h2.5c0.1,0,0.2,0,0.2,0.1c0.1,0.1,0.1,0.1,0.1,0.2l0,2.7
	c0,0.2-0.2,0.3-0.3,0.3H16v6.9c0,0.2-0.2,0.3-0.3,0.3h-2.8c-0.2,0-0.3-0.2-0.3-0.3v-6.9h-2.2c-0.2,0-0.3-0.2-0.3-0.3v-2.7
	c0-0.2,0.2-0.3,0.3-0.3h2.2V11c0-2.5,1.6-4.1,4-4.1l2.2,0C18.8,7,19,7.1,19,7.3V9.8z"/>
</svg>
