<?xml version="1.0" encoding="utf-8"?>
<!-- Generator: Adobe Illustrator 19.2.1, SVG Export Plug-In . SVG Version: 6.00 Build 0)  -->
<svg version="1.0" id="Capa_1" xmlns="http://www.w3.org/2000/svg" xmlns:xlink="http://www.w3.org/1999/xlink" x="0px" y="0px"
	 width="29px" height="29px" viewBox="0 0 29 29" style="enable-background:new 0 0 29 29;" xml:space="preserve">
<style type="text/css">
	.st0{fill:#0055BB;}
</style>
<g>
	<path class="st0" d="M14.5,0C6.5,0,0,6.5,0,14.5C0,22.5,6.5,29,14.5,29S29,22.5,29,14.5C29,6.5,22.5,0,14.5,0z M22.3,7.9l-2.8,13.6
		c-0.1,0.6-0.9,0.9-1.4,0.5l-4.3-3.2l-2.2,2.2c-0.4,0.4-1,0.2-1.2-0.3l-1.6-5l-4.2-1.3c-0.6-0.2-0.6-0.9,0-1.1l16.7-6.5
		C21.8,6.6,22.5,7.2,22.3,7.9z"/>
	<path class="st0" d="M18.9,9.6l-9.1,5.7c-0.2,0.1-0.2,0.3-0.2,0.5l1.2,4c0,0.1,0.1,0.1,0.2,0l0.3-2.7c0-0.1,0.1-0.2,0.1-0.3
		l7.7-6.9C19.3,9.7,19.1,9.4,18.9,9.6z"/>
</g>
</svg>
